# MagicaVoxel @ Ephtracy

# group
o 

# material
mtllib main.mtl
usemtl palette

# normals
vn -1 0 0
vn 1 0 0
vn 0 0 1
vn 0 0 -1
vn 0 -1 0
vn 0 1 0

# texcoords
vt 0.138672 0.5
vt 0.841797 0.5
vt 0.845703 0.5
vt 0.849609 0.5
vt 0.853516 0.5
vt 0.861328 0.5
vt 0.951172 0.5
vt 0.955078 0.5
vt 0.962891 0.5

# verts
v -0.4 0.3 0.4
v -0.4 0.3 0.3
v -0.4 0.3 -0.4
v -0.4 0.4 0.4
v -0.4 0.4 0.3
v -0.4 0.4 0.2
v -0.4 0.4 0.0999999
v -0.4 0.4 -0.1
v -0.4 0.4 -0.4
v -0.4 0.5 0.4
v -0.4 0.5 0.3
v -0.4 0.5 0.2
v -0.4 0.5 0.0999999
v -0.4 0.5 -5.96046e-08
v -0.4 0.5 -0.1
v -0.4 0.5 -0.3
v -0.4 0.6 0.3
v -0.4 0.6 0.2
v -0.4 0.6 0.0999999
v -0.4 0.6 -0.1
v -0.4 0.6 -0.2
v -0.4 0.6 -0.3
v -0.4 0.6 -0.4
v -0.4 0.7 0.3
v -0.4 0.7 0.2
v -0.4 0.7 0.0999999
v -0.4 0.7 -5.96046e-08
v -0.4 0.7 -0.1
v -0.4 0.7 -0.2
v -0.4 0.7 -0.3
v -0.4 0.7 -0.4
v -0.4 0.8 0.2
v -0.4 0.8 0.0999999
v -0.4 0.8 -5.96046e-08
v -0.4 0.8 -0.1
v -0.4 0.8 -0.2
v -0.4 0.8 -0.3
v -0.4 0.8 -0.4
v -0.4 0.9 0.4
v -0.4 0.9 0.3
v -0.4 0.9 0.2
v -0.4 0.9 0.0999999
v -0.4 0.9 -5.96046e-08
v -0.4 0.9 -0.1
v -0.4 0.9 -0.2
v -0.4 0.9 -0.3
v -0.4 0.9 -0.4
v -0.4 1 0.4
v -0.4 1 0.3
v -0.4 1 -5.96046e-08
v -0.4 1 -0.1
v -0.4 1 -0.3
v -0.4 1 -0.4
v -0.4 1.1 0.4
v -0.4 1.1 0.3
v -0.4 1.1 -5.96046e-08
v -0.4 1.1 -0.2
v -0.4 1.1 -0.4
v -0.2 0.5 0.6
v -0.2 0.5 0.5
v -0.2 0.5 0.4
v -0.2 0.5 -0.4
v -0.2 0.5 -0.6
v -0.2 0.6 0.4
v -0.2 0.6 -0.4
v -0.2 0.7 0.6
v -0.2 0.7 0.5
v -0.2 0.7 -0.4
v -0.2 0.7 -0.5
v -0.2 0.7 -0.6
v -0.2 0.8 0.6
v -0.2 0.8 0.4
v -0.2 0.8 -0.4
v -0.2 0.8 -0.5
v -0.2 0.8 -0.6
v -0.1 0.1 0.3
v -0.1 0.1 0.0999999
v -0.1 0.1 -0.1
v -0.1 0.1 -0.3
v -0.1 0.3 0.3
v -0.1 0.3 0.0999999
v -0.1 0.3 -0.1
v -0.1 0.3 -0.2
v -0.1 0.3 -0.3
v 0 0.5 0.6
v 0 0.5 0.4
v 0 0.5 -0.4
v 0 0.5 -0.5
v 0 0.5 -0.6
v 0 0.6 0.6
v 0 0.6 0.4
v 0 0.6 -0.4
v 0 0.6 -0.5
v 0 0.7 0.5
v 0 0.7 0.4
v 0 0.7 -0.4
v 0 0.7 -0.6
v 0 0.8 0.6
v 0 0.8 0.5
v 0 0.8 0.4
v 0 0.8 -0.4
v 0 0.8 -0.6
v 0.1 0.1 0.3
v 0.1 0.1 0.2
v 0.1 0.1 0.0999999
v 0.1 0.1 -0.1
v 0.1 0.1 -0.2
v 0.1 0.1 -0.3
v 0.1 0.2 0.3
v 0.1 0.2 0.2
v 0.1 0.2 0.0999999
v 0.1 0.2 -0.1
v 0.1 0.2 -0.2
v 0.1 0.2 -0.3
v 0.1 0.3 0.3
v 0.1 0.3 0.0999999
v 0.1 0.3 -0.1
v 0.1 0.3 -0.2
v 0.1 0.3 -0.3
v 0.2 0.3 0.4
v 0.2 0.3 0.0999999
v 0.2 0.3 -5.96046e-08
v 0.2 0.3 -0.1
v 0.2 0.3 -0.2
v 0.2 0.3 -0.4
v 0.2 0.4 0.4
v 0.2 0.4 0.3
v 0.2 0.4 0.2
v 0.2 0.4 0.0999999
v 0.2 0.4 -5.96046e-08
v 0.2 0.4 -0.1
v 0.2 0.4 -0.2
v 0.2 0.4 -0.3
v 0.2 0.4 -0.4
v 0.2 0.5 0.4
v 0.2 0.5 0.3
v 0.2 0.5 0.2
v 0.2 0.5 -0.2
v 0.2 0.5 -0.3
v 0.2 0.5 -0.4
v 0.2 0.6 0.4
v 0.2 0.6 0.3
v 0.2 0.6 0.2
v 0.2 0.6 -0.2
v 0.2 0.6 -0.3
v 0.2 0.6 -0.4
v 0.2 0.7 0.4
v 0.2 0.7 0.3
v 0.2 0.7 0.2
v 0.2 0.7 0.0999999
v 0.2 0.7 -5.96046e-08
v 0.2 0.7 -0.1
v 0.2 0.7 -0.3
v 0.2 0.7 -0.4
v 0.2 0.8 0.4
v 0.2 0.8 0.3
v 0.2 0.8 0.2
v 0.2 0.8 0.0999999
v 0.2 0.8 -5.96046e-08
v 0.2 0.8 -0.1
v 0.2 0.8 -0.2
v 0.2 0.8 -0.3
v 0.2 0.8 -0.4
v 0.2 0.9 0.4
v 0.2 0.9 0.3
v 0.2 0.9 0.2
v 0.2 0.9 0.0999999
v 0.2 0.9 -5.96046e-08
v 0.2 0.9 -0.1
v 0.2 0.9 -0.2
v 0.2 0.9 -0.3
v 0.2 1 0.4
v 0.2 1 0.3
v 0.2 1 0.2
v 0.2 1 0.0999999
v 0.2 1 -5.96046e-08
v 0.2 1 -0.1
v 0.2 1 -0.2
v 0.2 1 -0.3
v 0.2 1.1 0.4
v 0.2 1.1 0.3
v 0.2 1.1 0.2
v 0.2 1.1 0.0999999
v 0.2 1.1 -5.96046e-08
v 0.2 1.1 -0.2
v 0.2 1.1 -0.3
v 0.2 1.1 -0.4
v -0.2 0.5 0.6
v -0.2 0.7 0.6
v -0.2 0.8 0.6
v -0.1 0.5 0.6
v -0.1 0.6 0.6
v -0.1 0.7 0.6
v -0.1 0.8 0.6
v 0 0.5 0.6
v 0 0.6 0.6
v 0 0.8 0.6
v -0.4 0.3 0.4
v -0.4 0.4 0.4
v -0.4 0.5 0.4
v -0.4 0.9 0.4
v -0.4 1 0.4
v -0.4 1.1 0.4
v -0.3 0.3 0.4
v -0.3 0.4 0.4
v -0.3 0.5 0.4
v -0.3 0.6 0.4
v -0.3 0.8 0.4
v -0.3 0.9 0.4
v -0.3 1 0.4
v -0.3 1.1 0.4
v -0.2 0.3 0.4
v -0.2 0.5 0.4
v -0.2 0.6 0.4
v -0.2 0.8 0.4
v -0.2 0.9 0.4
v -0.2 1 0.4
v -0.2 1.1 0.4
v -0.1 0.8 0.4
v -0.1 0.9 0.4
v -0.1 1 0.4
v -0.1 1.1 0.4
v 0 0.3 0.4
v 0 0.4 0.4
v 0 0.5 0.4
v 0 0.6 0.4
v 0 0.7 0.4
v 0 0.8 0.4
v 0 0.9 0.4
v 0 1 0.4
v 0 1.1 0.4
v 0.1 0.3 0.4
v 0.1 0.4 0.4
v 0.1 0.5 0.4
v 0.1 0.6 0.4
v 0.1 0.7 0.4
v 0.1 0.8 0.4
v 0.1 0.9 0.4
v 0.1 1 0.4
v 0.1 1.1 0.4
v 0.2 0.3 0.4
v 0.2 0.4 0.4
v 0.2 0.5 0.4
v 0.2 0.6 0.4
v 0.2 0.7 0.4
v 0.2 0.8 0.4
v 0.2 0.9 0.4
v 0.2 1 0.4
v 0.2 1.1 0.4
v -0.1 0.1 0.3
v -0.1 0.3 0.3
v 0 0.1 0.3
v 0 0.2 0.3
v 0 0.3 0.3
v 0.1 0.1 0.3
v 0.1 0.2 0.3
v 0.1 0.3 0.3
v -0.1 0.1 -0.1
v -0.1 0.3 -0.1
v 0 0.2 -0.1
v 0 0.3 -0.1
v 0.1 0.1 -0.1
v 0.1 0.2 -0.1
v 0.1 0.3 -0.1
v -0.1 0.1 0.0999999
v -0.1 0.3 0.0999999
v 0 0.1 0.0999999
v 0 0.2 0.0999999
v 0.1 0.1 0.0999999
v 0.1 0.2 0.0999999
v 0.1 0.3 0.0999999
v -0.1 0.1 -0.3
v -0.1 0.3 -0.3
v 0 0.1 -0.3
v 0 0.2 -0.3
v 0.1 0.1 -0.3
v 0.1 0.2 -0.3
v 0.1 0.3 -0.3
v -0.4 0.3 -0.4
v -0.4 0.4 -0.4
v -0.4 0.6 -0.4
v -0.4 0.7 -0.4
v -0.4 0.8 -0.4
v -0.4 0.9 -0.4
v -0.4 1 -0.4
v -0.4 1.1 -0.4
v -0.3 0.4 -0.4
v -0.3 0.6 -0.4
v -0.3 0.7 -0.4
v -0.3 0.8 -0.4
v -0.3 0.9 -0.4
v -0.3 1 -0.4
v -0.2 0.3 -0.4
v -0.2 0.5 -0.4
v -0.2 0.6 -0.4
v -0.2 0.7 -0.4
v -0.2 0.8 -0.4
v -0.2 0.9 -0.4
v -0.2 1 -0.4
v -0.2 1.1 -0.4
v -0.1 1 -0.4
v -0.1 1.1 -0.4
v 0 0.5 -0.4
v 0 0.6 -0.4
v 0 0.7 -0.4
v 0 0.8 -0.4
v 0 0.9 -0.4
v 0 1 -0.4
v 0 1.1 -0.4
v 0.1 0.3 -0.4
v 0.1 0.4 -0.4
v 0.1 0.5 -0.4
v 0.1 0.6 -0.4
v 0.1 0.7 -0.4
v 0.1 0.8 -0.4
v 0.1 0.9 -0.4
v 0.1 1 -0.4
v 0.1 1.1 -0.4
v 0.2 0.3 -0.4
v 0.2 0.4 -0.4
v 0.2 0.5 -0.4
v 0.2 0.6 -0.4
v 0.2 0.7 -0.4
v 0.2 0.8 -0.4
v 0.2 1.1 -0.4
v -0.2 0.5 -0.6
v -0.2 0.7 -0.6
v -0.2 0.8 -0.6
v -0.1 0.5 -0.6
v -0.1 0.7 -0.6
v -0.1 0.8 -0.6
v 0 0.5 -0.6
v 0 0.7 -0.6
v 0 0.8 -0.6
v -0.1 0.1 0.3
v 0 0.1 0.3
v 0.1 0.1 0.3
v 0 0.1 0.2
v 0.1 0.1 0.2
v -0.1 0.1 0.0999999
v 0 0.1 0.0999999
v 0.1 0.1 0.0999999
v -0.1 0.1 -0.1
v 0.1 0.1 -0.1
v 0 0.1 -0.2
v 0.1 0.1 -0.2
v -0.1 0.1 -0.3
v 0 0.1 -0.3
v 0.1 0.1 -0.3
v -0.4 0.3 0.4
v -0.3 0.3 0.4
v -0.2 0.3 0.4
v 0 0.3 0.4
v 0.1 0.3 0.4
v 0.2 0.3 0.4
v -0.4 0.3 0.3
v -0.3 0.3 0.3
v -0.1 0.3 0.3
v 0 0.3 0.3
v 0.1 0.3 0.3
v -0.1 0.3 0.0999999
v 0.1 0.3 0.0999999
v 0.2 0.3 0.0999999
v 0.1 0.3 -5.96046e-08
v 0.2 0.3 -5.96046e-08
v -0.1 0.3 -0.1
v 0 0.3 -0.1
v 0.1 0.3 -0.1
v 0.2 0.3 -0.1
v -0.2 0.3 -0.2
v -0.1 0.3 -0.2
v 0.1 0.3 -0.2
v 0.2 0.3 -0.2
v -0.2 0.3 -0.3
v -0.1 0.3 -0.3
v 0.1 0.3 -0.3
v -0.4 0.3 -0.4
v -0.2 0.3 -0.4
v 0.1 0.3 -0.4
v 0.2 0.3 -0.4
v -0.2 0.5 0.6
v -0.1 0.5 0.6
v 0 0.5 0.6
v -0.2 0.5 0.5
v -0.1 0.5 0.5
v -0.2 0.5 0.4
v 0 0.5 0.4
v -0.2 0.5 -0.4
v 0 0.5 -0.4
v -0.1 0.5 -0.5
v 0 0.5 -0.5
v -0.2 0.5 -0.6
v -0.1 0.5 -0.6
v 0 0.5 -0.6
v -0.2 0.8 0.6
v -0.1 0.8 0.6
v 0 0.8 0.6
v -0.1 0.8 0.5
v 0 0.8 0.5
v -0.2 0.8 0.4
v -0.1 0.8 0.4
v 0 0.8 0.4
v -0.2 0.8 -0.4
v 0 0.8 -0.4
v -0.2 0.8 -0.5
v -0.1 0.8 -0.5
v -0.2 0.8 -0.6
v -0.1 0.8 -0.6
v 0 0.8 -0.6
v -0.4 1.1 0.4
v -0.3 1.1 0.4
v -0.2 1.1 0.4
v -0.1 1.1 0.4
v 0 1.1 0.4
v 0.1 1.1 0.4
v 0.2 1.1 0.4
v -0.4 1.1 0.3
v -0.3 1.1 0.3
v -0.2 1.1 0.3
v -0.1 1.1 0.3
v 0 1.1 0.3
v 0.1 1.1 0.3
v 0.2 1.1 0.3
v -0.2 1.1 0.2
v -0.1 1.1 0.2
v 0 1.1 0.2
v 0.1 1.1 0.2
v 0.2 1.1 0.2
v -0.2 1.1 0.0999999
v -0.1 1.1 0.0999999
v 0 1.1 0.0999999
v 0.2 1.1 0.0999999
v -0.4 1.1 -5.96046e-08
v -0.3 1.1 -5.96046e-08
v 0 1.1 -5.96046e-08
v 0.1 1.1 -5.96046e-08
v 0.2 1.1 -5.96046e-08
v -0.1 1.1 -0.1
v 0 1.1 -0.1
v 0.1 1.1 -0.1
v -0.4 1.1 -0.2
v -0.3 1.1 -0.2
v -0.2 1.1 -0.2
v -0.1 1.1 -0.2
v 0 1.1 -0.2
v 0.1 1.1 -0.2
v 0.2 1.1 -0.2
v -0.3 1.1 -0.3
v -0.2 1.1 -0.3
v -0.1 1.1 -0.3
v 0 1.1 -0.3
v 0.1 1.1 -0.3
v 0.2 1.1 -0.3
v -0.4 1.1 -0.4
v -0.2 1.1 -0.4
v -0.1 1.1 -0.4
v 0 1.1 -0.4
v 0.1 1.1 -0.4
v 0.2 1.1 -0.4

# faces
f 4/1/1 2/1/1 1/1/1
f 5/3/1 3/3/1 2/3/1
f 5/1/1 2/1/1 4/1/1
f 6/3/1 3/3/1 5/3/1
f 7/3/1 3/3/1 6/3/1
f 8/3/1 3/3/1 7/3/1
f 9/3/1 3/3/1 8/3/1
f 10/5/1 5/5/1 4/5/1
f 10/5/1 6/5/1 5/5/1
f 11/5/1 6/5/1 10/5/1
f 12/1/1 7/1/1 6/1/1
f 12/5/1 6/5/1 11/5/1
f 13/3/1 8/3/1 7/3/1
f 13/1/1 7/1/1 12/1/1
f 14/3/1 8/3/1 13/3/1
f 15/1/1 9/1/1 8/1/1
f 15/3/1 8/3/1 14/3/1
f 16/1/1 9/1/1 15/1/1
f 17/3/1 11/3/1 10/3/1
f 17/5/1 12/5/1 11/5/1
f 18/3/1 13/3/1 12/3/1
f 18/5/1 12/5/1 17/5/1
f 19/1/1 14/1/1 13/1/1
f 19/3/1 13/3/1 18/3/1
f 20/3/1 16/3/1 15/3/1
f 20/3/1 15/3/1 14/3/1
f 21/3/1 16/3/1 20/3/1
f 22/1/1 9/1/1 16/1/1
f 22/3/1 16/3/1 21/3/1
f 23/1/1 9/1/1 22/1/1
f 24/3/1 18/3/1 17/3/1
f 24/3/1 17/3/1 10/3/1
f 25/5/1 19/5/1 18/5/1
f 25/3/1 18/3/1 24/3/1
f 26/1/1 14/1/1 19/1/1
f 26/5/1 19/5/1 25/5/1
f 27/3/1 20/3/1 14/3/1
f 27/1/1 14/1/1 26/1/1
f 28/5/1 21/5/1 20/5/1
f 28/3/1 20/3/1 27/3/1
f 29/3/1 23/3/1 22/3/1
f 29/5/1 21/5/1 28/5/1
f 29/3/1 22/3/1 21/3/1
f 30/3/1 23/3/1 29/3/1
f 31/3/1 23/3/1 30/3/1
f 32/3/1 27/3/1 26/3/1
f 32/1/1 25/1/1 24/1/1
f 32/3/1 28/3/1 27/3/1
f 32/3/1 26/3/1 25/3/1
f 33/3/1 28/3/1 32/3/1
f 34/3/1 28/3/1 33/3/1
f 35/1/1 29/1/1 28/1/1
f 35/3/1 28/3/1 34/3/1
f 36/3/1 30/3/1 29/3/1
f 36/1/1 29/1/1 35/1/1
f 37/5/1 31/5/1 30/5/1
f 37/3/1 30/3/1 36/3/1
f 38/5/1 31/5/1 37/5/1
f 39/3/1 24/3/1 10/3/1
f 40/1/1 32/1/1 24/1/1
f 40/3/1 24/3/1 39/3/1
f 41/5/1 33/5/1 32/5/1
f 41/1/1 32/1/1 40/1/1
f 42/3/1 34/3/1 33/3/1
f 42/5/1 33/5/1 41/5/1
f 43/1/1 35/1/1 34/1/1
f 43/3/1 34/3/1 42/3/1
f 44/3/1 36/3/1 35/3/1
f 44/1/1 35/1/1 43/1/1
f 44/3/1 37/3/1 36/3/1
f 44/3/1 38/3/1 37/3/1
f 45/3/1 38/3/1 44/3/1
f 46/3/1 38/3/1 45/3/1
f 47/3/1 38/3/1 46/3/1
f 48/1/1 40/1/1 39/1/1
f 49/3/1 43/3/1 42/3/1
f 49/1/1 40/1/1 48/1/1
f 49/3/1 42/3/1 41/3/1
f 49/3/1 41/3/1 40/3/1
f 49/3/1 44/3/1 43/3/1
f 50/3/1 44/3/1 49/3/1
f 51/5/1 45/5/1 44/5/1
f 51/3/1 44/3/1 50/3/1
f 52/1/1 47/1/1 46/1/1
f 52/3/1 46/3/1 45/3/1
f 53/1/1 47/1/1 52/1/1
f 54/3/1 49/3/1 48/3/1
f 55/1/1 50/1/1 49/1/1
f 55/3/1 49/3/1 54/3/1
f 56/5/1 51/5/1 50/5/1
f 56/1/1 50/1/1 55/1/1
f 57/5/1 45/5/1 51/5/1
f 57/5/1 51/5/1 56/5/1
f 57/3/1 52/3/1 45/3/1
f 57/3/1 53/3/1 52/3/1
f 58/3/1 53/3/1 57/3/1
f 64/1/1 61/1/1 60/1/1
f 65/1/1 63/1/1 62/1/1
f 66/5/1 60/5/1 59/5/1
f 67/1/1 64/1/1 60/1/1
f 67/5/1 60/5/1 66/5/1
f 68/1/1 63/1/1 65/1/1
f 69/1/1 63/1/1 68/1/1
f 70/1/1 63/1/1 69/1/1
f 71/1/1 67/1/1 66/1/1
f 72/1/1 64/1/1 67/1/1
f 72/1/1 67/1/1 71/1/1
f 73/1/1 69/1/1 68/1/1
f 74/5/1 70/5/1 69/5/1
f 74/1/1 69/1/1 73/1/1
f 75/5/1 70/5/1 74/5/1
f 80/1/1 77/1/1 76/1/1
f 81/1/1 77/1/1 80/1/1
f 82/1/1 79/1/1 78/1/1
f 83/1/1 79/1/1 82/1/1
f 84/1/1 79/1/1 83/1/1
f 85/1/2 86/1/2 90/1/2
f 90/1/2 86/1/2 91/1/2
f 87/1/2 88/1/2 92/1/2
f 88/5/2 89/5/2 93/5/2
f 92/1/2 88/1/2 93/1/2
f 90/3/2 91/3/2 94/3/2
f 94/3/2 91/3/2 95/3/2
f 92/5/2 93/5/2 96/5/2
f 93/5/2 89/5/2 97/5/2
f 96/5/2 93/5/2 97/5/2
f 90/3/2 94/3/2 98/3/2
f 94/1/2 95/1/2 99/1/2
f 98/3/2 94/3/2 99/3/2
f 99/1/2 95/1/2 100/1/2
f 96/1/2 97/1/2 101/1/2
f 101/1/2 97/1/2 102/1/2
f 103/5/2 104/5/2 109/5/2
f 104/3/2 105/3/2 110/3/2
f 109/5/2 104/5/2 110/5/2
f 110/3/2 105/3/2 111/3/2
f 106/1/2 107/1/2 112/1/2
f 107/5/2 108/5/2 113/5/2
f 112/1/2 107/1/2 113/1/2
f 113/5/2 108/5/2 114/5/2
f 110/1/2 111/1/2 115/1/2
f 109/1/2 110/1/2 115/1/2
f 115/1/2 111/1/2 116/1/2
f 112/5/2 113/5/2 117/5/2
f 113/1/2 114/1/2 118/1/2
f 117/5/2 113/5/2 118/5/2
f 118/1/2 114/1/2 119/1/2
f 120/1/2 121/1/2 126/1/2
f 126/1/2 121/1/2 127/1/2
f 127/1/2 121/1/2 128/1/2
f 121/3/2 122/3/2 129/3/2
f 128/1/2 121/1/2 129/1/2
f 122/5/2 123/5/2 130/5/2
f 129/3/2 122/3/2 130/3/2
f 123/3/2 124/3/2 131/3/2
f 130/5/2 123/5/2 131/5/2
f 124/5/2 125/5/2 132/5/2
f 131/3/2 124/3/2 132/3/2
f 132/5/2 125/5/2 133/5/2
f 133/5/2 125/5/2 134/5/2
f 126/5/2 127/5/2 135/5/2
f 127/3/2 128/3/2 136/3/2
f 135/5/2 127/5/2 136/5/2
f 130/1/2 131/1/2 137/1/2
f 136/3/2 128/3/2 137/3/2
f 128/1/2 129/1/2 137/1/2
f 129/1/2 130/1/2 137/1/2
f 132/1/2 133/1/2 137/1/2
f 131/1/2 132/1/2 137/1/2
f 137/1/2 133/1/2 138/1/2
f 133/3/2 134/3/2 139/3/2
f 138/1/2 133/1/2 139/1/2
f 139/3/2 134/3/2 140/3/2
f 135/3/2 136/3/2 141/3/2
f 136/4/2 137/4/2 142/4/2
f 141/3/2 136/3/2 142/3/2
f 137/7/2 138/7/2 143/7/2
f 142/4/2 137/4/2 143/4/2
f 138/4/2 139/4/2 144/4/2
f 143/7/2 138/7/2 144/7/2
f 139/1/2 140/1/2 145/1/2
f 144/4/2 139/4/2 145/4/2
f 145/1/2 140/1/2 146/1/2
f 141/5/2 142/5/2 147/5/2
f 142/4/2 143/4/2 148/4/2
f 147/5/2 142/5/2 148/5/2
f 143/1/2 144/1/2 149/1/2
f 148/4/2 143/4/2 149/4/2
f 144/1/2 145/1/2 149/1/2
f 149/1/2 145/1/2 150/1/2
f 150/1/2 145/1/2 151/1/2
f 151/1/2 145/1/2 152/1/2
f 145/5/2 146/5/2 153/5/2
f 152/1/2 145/1/2 153/1/2
f 153/5/2 146/5/2 154/5/2
f 147/1/2 148/1/2 155/1/2
f 148/8/2 149/8/2 156/8/2
f 155/1/2 148/1/2 156/1/2
f 149/8/2 150/8/2 156/8/2
f 156/8/2 150/8/2 157/8/2
f 150/3/2 151/3/2 158/3/2
f 157/8/2 150/8/2 158/8/2
f 151/1/2 152/1/2 159/1/2
f 158/3/2 151/3/2 159/3/2
f 152/8/2 153/8/2 160/8/2
f 159/1/2 152/1/2 160/1/2
f 160/8/2 153/8/2 161/8/2
f 153/3/2 154/3/2 162/3/2
f 161/8/2 153/8/2 162/8/2
f 162/3/2 154/3/2 163/3/2
f 155/6/2 156/6/2 164/6/2
f 156/9/2 157/9/2 165/9/2
f 164/6/2 156/6/2 165/6/2
f 157/8/2 158/8/2 166/8/2
f 165/9/2 157/9/2 166/9/2
f 158/1/2 159/1/2 167/1/2
f 166/8/2 158/8/2 167/8/2
f 159/4/2 160/4/2 168/4/2
f 167/1/2 159/1/2 168/1/2
f 160/9/2 161/9/2 169/9/2
f 168/4/2 160/4/2 169/4/2
f 161/8/2 162/8/2 170/8/2
f 169/9/2 161/9/2 170/9/2
f 162/1/2 163/1/2 171/1/2
f 170/8/2 162/8/2 171/8/2
f 164/3/2 165/3/2 172/3/2
f 165/1/2 166/1/2 173/1/2
f 172/3/2 165/3/2 173/3/2
f 166/1/2 167/1/2 173/1/2
f 173/1/2 167/1/2 174/1/2
f 167/2/2 168/2/2 175/2/2
f 174/1/2 167/1/2 175/1/2
f 168/3/2 169/3/2 176/3/2
f 175/2/2 168/2/2 176/2/2
f 170/1/2 171/1/2 177/1/2
f 176/3/2 169/3/2 177/3/2
f 169/1/2 170/1/2 177/1/2
f 177/1/2 171/1/2 178/1/2
f 171/1/2 163/1/2 179/1/2
f 178/1/2 171/1/2 179/1/2
f 172/1/2 173/1/2 180/1/2
f 173/6/2 174/6/2 181/6/2
f 180/1/2 173/1/2 181/1/2
f 174/1/2 175/1/2 182/1/2
f 181/6/2 174/6/2 182/6/2
f 175/3/2 176/3/2 183/3/2
f 182/1/2 175/1/2 183/1/2
f 177/1/2 178/1/2 184/1/2
f 183/3/2 176/3/2 184/3/2
f 176/1/2 177/1/2 184/1/2
f 178/6/2 179/6/2 185/6/2
f 184/1/2 178/1/2 185/1/2
f 179/1/2 163/1/2 186/1/2
f 185/6/2 179/6/2 186/6/2
f 186/1/2 163/1/2 187/1/2
f 191/5/3 189/5/3 188/5/3
f 192/5/3 189/5/3 191/5/3
f 193/1/3 190/1/3 189/1/3
f 193/5/3 189/5/3 192/5/3
f 194/1/3 190/1/3 193/1/3
f 195/1/3 192/1/3 191/1/3
f 196/3/3 193/3/3 192/3/3
f 196/1/3 192/1/3 195/1/3
f 196/3/3 194/3/3 193/3/3
f 197/3/3 194/3/3 196/3/3
f 204/1/3 199/1/3 198/1/3
f 205/5/3 200/5/3 199/5/3
f 205/1/3 199/1/3 204/1/3
f 206/3/3 201/3/3 200/3/3
f 206/5/3 200/5/3 205/5/3
f 207/3/3 201/3/3 206/3/3
f 208/3/3 201/3/3 207/3/3
f 209/1/3 202/1/3 201/1/3
f 209/3/3 201/3/3 208/3/3
f 210/3/3 203/3/3 202/3/3
f 210/1/3 202/1/3 209/1/3
f 211/3/3 203/3/3 210/3/3
f 212/3/3 205/3/3 204/3/3
f 212/3/3 206/3/3 205/3/3
f 213/1/3 207/1/3 206/1/3
f 213/3/3 206/3/3 212/3/3
f 214/3/3 208/3/3 207/3/3
f 214/1/3 207/1/3 213/1/3
f 215/1/3 209/1/3 208/1/3
f 215/3/3 208/3/3 214/3/3
f 216/5/3 210/5/3 209/5/3
f 216/1/3 209/1/3 215/1/3
f 217/1/3 211/1/3 210/1/3
f 217/5/3 210/5/3 216/5/3
f 218/1/3 211/1/3 217/1/3
f 219/4/3 216/4/3 215/4/3
f 220/1/3 217/1/3 216/1/3
f 220/4/3 216/4/3 219/4/3
f 221/6/3 218/6/3 217/6/3
f 221/1/3 217/1/3 220/1/3
f 222/6/3 218/6/3 221/6/3
f 223/1/3 213/1/3 212/1/3
f 224/1/3 213/1/3 223/1/3
f 225/1/3 213/1/3 224/1/3
f 228/1/3 220/1/3 219/1/3
f 229/4/3 221/4/3 220/4/3
f 229/1/3 220/1/3 228/1/3
f 230/1/3 222/1/3 221/1/3
f 230/4/3 221/4/3 229/4/3
f 231/1/3 222/1/3 230/1/3
f 232/5/3 224/5/3 223/5/3
f 233/1/3 227/1/3 226/1/3
f 233/5/3 224/5/3 232/5/3
f 233/1/3 225/1/3 224/1/3
f 233/1/3 226/1/3 225/1/3
f 234/1/3 227/1/3 233/1/3
f 235/1/3 227/1/3 234/1/3
f 236/6/3 228/6/3 227/6/3
f 236/1/3 227/1/3 235/1/3
f 237/1/3 229/1/3 228/1/3
f 237/6/3 228/6/3 236/6/3
f 237/1/3 230/1/3 229/1/3
f 238/1/3 230/1/3 237/1/3
f 239/4/3 231/4/3 230/4/3
f 239/1/3 230/1/3 238/1/3
f 240/4/3 231/4/3 239/4/3
f 241/1/3 233/1/3 232/1/3
f 242/5/3 234/5/3 233/5/3
f 242/1/3 233/1/3 241/1/3
f 243/3/3 235/3/3 234/3/3
f 243/5/3 234/5/3 242/5/3
f 244/5/3 236/5/3 235/5/3
f 244/3/3 235/3/3 243/3/3
f 245/1/3 237/1/3 236/1/3
f 245/5/3 236/5/3 244/5/3
f 246/6/3 238/6/3 237/6/3
f 246/1/3 237/1/3 245/1/3
f 247/3/3 239/3/3 238/3/3
f 247/6/3 238/6/3 246/6/3
f 248/1/3 240/1/3 239/1/3
f 248/3/3 239/3/3 247/3/3
f 249/1/3 240/1/3 248/1/3
f 252/1/3 251/1/3 250/1/3
f 253/1/3 251/1/3 252/1/3
f 254/1/3 251/1/3 253/1/3
f 255/5/3 253/5/3 252/5/3
f 256/1/3 254/1/3 253/1/3
f 256/5/3 253/5/3 255/5/3
f 257/1/3 254/1/3 256/1/3
f 260/1/3 259/1/3 258/1/3
f 261/1/3 259/1/3 260/1/3
f 262/1/3 260/1/3 258/1/3
f 263/5/3 261/5/3 260/5/3
f 263/1/3 260/1/3 262/1/3
f 264/5/3 261/5/3 263/5/3
f 265/1/4 266/1/4 267/1/4
f 267/1/4 266/1/4 268/1/4
f 267/3/4 268/3/4 269/3/4
f 268/1/4 266/1/4 270/1/4
f 269/3/4 268/3/4 270/3/4
f 270/1/4 266/1/4 271/1/4
f 272/1/4 273/1/4 274/1/4
f 274/1/4 273/1/4 275/1/4
f 274/5/4 275/5/4 276/5/4
f 275/1/4 273/1/4 277/1/4
f 276/5/4 275/5/4 277/5/4
f 277/1/4 273/1/4 278/1/4
f 279/3/4 280/3/4 287/3/4
f 280/1/4 281/1/4 287/1/4
f 281/3/4 282/3/4 288/3/4
f 287/1/4 281/1/4 288/1/4
f 282/5/4 283/5/4 289/5/4
f 288/3/4 282/3/4 289/3/4
f 283/3/4 284/3/4 290/3/4
f 289/5/4 283/5/4 290/5/4
f 284/1/4 285/1/4 291/1/4
f 290/3/4 284/3/4 291/3/4
f 285/3/4 286/3/4 292/3/4
f 291/1/4 285/1/4 292/1/4
f 279/3/4 287/3/4 293/3/4
f 287/3/4 288/3/4 293/3/4
f 293/3/4 288/3/4 294/3/4
f 288/1/4 289/1/4 295/1/4
f 294/3/4 288/3/4 295/3/4
f 289/3/4 290/3/4 296/3/4
f 295/1/4 289/1/4 296/1/4
f 290/1/4 291/1/4 297/1/4
f 296/3/4 290/3/4 297/3/4
f 291/3/4 292/3/4 298/3/4
f 297/1/4 291/1/4 298/1/4
f 292/3/4 286/3/4 299/3/4
f 298/3/4 292/3/4 299/3/4
f 299/3/4 286/3/4 300/3/4
f 299/5/4 300/5/4 301/5/4
f 298/1/4 299/1/4 301/1/4
f 297/1/4 298/1/4 301/1/4
f 301/5/4 300/5/4 302/5/4
f 293/1/4 294/1/4 303/1/4
f 297/1/4 301/1/4 306/1/4
f 301/1/4 302/1/4 306/1/4
f 306/1/4 302/1/4 307/1/4
f 307/1/4 302/1/4 308/1/4
f 308/1/4 302/1/4 309/1/4
f 303/1/4 304/1/4 310/1/4
f 293/1/4 303/1/4 310/1/4
f 310/1/4 304/1/4 311/1/4
f 311/1/4 304/1/4 312/1/4
f 304/3/4 305/3/4 313/3/4
f 312/1/4 304/1/4 313/1/4
f 305/1/4 306/1/4 314/1/4
f 313/3/4 305/3/4 314/3/4
f 306/6/4 307/6/4 315/6/4
f 314/1/4 306/1/4 315/1/4
f 307/3/4 308/3/4 316/3/4
f 315/6/4 307/6/4 316/6/4
f 308/6/4 309/6/4 317/6/4
f 316/3/4 308/3/4 317/3/4
f 317/6/4 309/6/4 318/6/4
f 310/5/4 311/5/4 319/5/4
f 311/3/4 312/3/4 320/3/4
f 319/5/4 311/5/4 320/5/4
f 312/1/4 313/1/4 321/1/4
f 320/3/4 312/3/4 321/3/4
f 313/5/4 314/5/4 322/5/4
f 321/1/4 313/1/4 322/1/4
f 314/3/4 315/3/4 323/3/4
f 322/5/4 314/5/4 323/5/4
f 315/1/4 316/1/4 324/1/4
f 323/3/4 315/3/4 324/3/4
f 316/1/4 317/1/4 324/1/4
f 317/1/4 318/1/4 324/1/4
f 324/1/4 318/1/4 325/1/4
f 326/1/4 327/1/4 329/1/4
f 327/5/4 328/5/4 330/5/4
f 329/1/4 327/1/4 330/1/4
f 330/5/4 328/5/4 331/5/4
f 329/5/4 330/5/4 332/5/4
f 330/1/4 331/1/4 333/1/4
f 332/5/4 330/5/4 333/5/4
f 333/1/4 331/1/4 334/1/4
f 338/1/5 336/1/5 335/1/5
f 338/5/5 337/5/5 336/5/5
f 339/5/5 337/5/5 338/5/5
f 340/1/5 338/1/5 335/1/5
f 341/3/5 339/3/5 338/3/5
f 341/1/5 338/1/5 340/1/5
f 342/3/5 339/3/5 341/3/5
f 345/1/5 344/1/5 343/1/5
f 346/1/5 344/1/5 345/1/5
f 347/1/5 345/1/5 343/1/5
f 348/5/5 346/5/5 345/5/5
f 348/1/5 345/1/5 347/1/5
f 349/5/5 346/5/5 348/5/5
f 356/1/5 351/1/5 350/1/5
f 357/3/5 352/3/5 351/3/5
f 357/1/5 351/1/5 356/1/5
f 358/1/5 353/1/5 352/1/5
f 359/5/5 354/5/5 353/5/5
f 359/1/5 353/1/5 358/1/5
f 360/1/5 355/1/5 354/1/5
f 360/5/5 354/5/5 359/5/5
f 361/1/5 358/1/5 352/1/5
f 362/1/5 355/1/5 360/1/5
f 363/1/5 355/1/5 362/1/5
f 364/1/5 362/1/5 361/1/5
f 364/3/5 363/3/5 362/3/5
f 365/3/5 363/3/5 364/3/5
f 366/1/5 361/1/5 352/1/5
f 366/1/5 364/1/5 361/1/5
f 367/1/5 364/1/5 366/1/5
f 368/5/5 365/5/5 364/5/5
f 368/1/5 364/1/5 367/1/5
f 369/5/5 365/5/5 368/5/5
f 370/3/5 352/3/5 357/3/5
f 370/3/5 357/3/5 356/3/5
f 370/1/5 366/1/5 352/1/5
f 371/1/5 366/1/5 370/1/5
f 372/3/5 369/3/5 368/3/5
f 373/3/5 369/3/5 372/3/5
f 374/3/5 371/3/5 370/3/5
f 374/3/5 370/3/5 356/3/5
f 375/3/5 371/3/5 374/3/5
f 376/5/5 373/5/5 372/5/5
f 377/3/5 374/3/5 356/3/5
f 378/1/5 375/1/5 374/1/5
f 378/3/5 374/3/5 377/3/5
f 378/1/5 376/1/5 375/1/5
f 379/5/5 373/5/5 376/5/5
f 379/1/5 376/1/5 378/1/5
f 380/5/5 373/5/5 379/5/5
f 384/5/5 382/5/5 381/5/5
f 385/1/5 383/1/5 382/1/5
f 385/5/5 382/5/5 384/5/5
f 386/1/5 385/1/5 384/1/5
f 387/1/5 383/1/5 385/1/5
f 387/1/5 385/1/5 386/1/5
f 390/1/5 389/1/5 388/1/5
f 391/1/5 389/1/5 390/1/5
f 392/1/5 390/1/5 388/1/5
f 393/5/5 391/5/5 390/5/5
f 393/1/5 390/1/5 392/1/5
f 394/5/5 391/5/5 393/5/5
f 395/1/6 396/1/6 398/1/6
f 396/3/6 397/3/6 398/3/6
f 398/3/6 397/3/6 399/3/6
f 395/1/6 398/1/6 400/1/6
f 398/1/6 399/1/6 400/1/6
f 400/1/6 399/1/6 401/1/6
f 401/1/6 399/1/6 402/1/6
f 403/1/6 404/1/6 405/1/6
f 405/1/6 404/1/6 406/1/6
f 405/5/6 406/5/6 407/5/6
f 406/1/6 404/1/6 408/1/6
f 407/5/6 406/5/6 408/5/6
f 408/1/6 404/1/6 409/1/6
f 410/3/6 411/3/6 417/3/6
f 411/1/6 412/1/6 418/1/6
f 417/3/6 411/3/6 418/3/6
f 412/6/6 413/6/6 419/6/6
f 418/1/6 412/1/6 419/1/6
f 413/1/6 414/1/6 420/1/6
f 419/6/6 413/6/6 420/6/6
f 414/4/6 415/4/6 421/4/6
f 420/1/6 414/1/6 421/1/6
f 415/1/6 416/1/6 422/1/6
f 421/4/6 415/4/6 422/4/6
f 422/1/6 416/1/6 423/1/6
f 420/1/6 421/1/6 424/1/6
f 418/3/6 419/3/6 424/3/6
f 419/1/6 420/1/6 424/1/6
f 424/1/6 421/1/6 425/1/6
f 421/5/6 422/5/6 426/5/6
f 425/1/6 421/1/6 426/1/6
f 422/6/6 423/6/6 427/6/6
f 426/5/6 422/5/6 427/5/6
f 427/6/6 423/6/6 428/6/6
f 424/6/6 425/6/6 429/6/6
f 418/3/6 424/3/6 429/3/6
f 425/1/6 426/1/6 430/1/6
f 429/6/6 425/6/6 430/6/6
f 427/1/6 428/1/6 430/1/6
f 426/1/6 427/1/6 430/1/6
f 430/1/6 428/1/6 431/1/6
f 431/1/6 428/1/6 432/1/6
f 417/1/6 418/1/6 433/1/6
f 418/3/6 429/3/6 434/3/6
f 433/1/6 418/1/6 434/1/6
f 430/4/6 431/4/6 435/4/6
f 431/3/6 432/3/6 435/3/6
f 435/3/6 432/3/6 436/3/6
f 436/3/6 432/3/6 437/3/6
f 429/1/6 430/1/6 438/1/6
f 430/4/6 435/4/6 438/4/6
f 435/5/6 436/5/6 439/5/6
f 438/4/6 435/4/6 439/4/6
f 436/1/6 437/1/6 440/1/6
f 439/5/6 436/5/6 440/5/6
f 433/5/6 434/5/6 441/5/6
f 434/3/6 429/3/6 442/3/6
f 441/5/6 434/5/6 442/5/6
f 438/1/6 439/1/6 443/1/6
f 442/3/6 429/3/6 443/3/6
f 429/1/6 438/1/6 443/1/6
f 439/1/6 440/1/6 443/1/6
f 443/1/6 440/1/6 444/1/6
f 444/1/6 440/1/6 445/1/6
f 440/1/6 437/1/6 446/1/6
f 445/1/6 440/1/6 446/1/6
f 446/1/6 437/1/6 447/1/6
f 441/3/6 442/3/6 448/3/6
f 442/1/6 443/1/6 448/1/6
f 443/1/6 444/1/6 448/1/6
f 448/1/6 444/1/6 449/1/6
f 444/4/6 445/4/6 450/4/6
f 449/1/6 444/1/6 450/1/6
f 445/1/6 446/1/6 451/1/6
f 450/4/6 445/4/6 451/4/6
f 446/6/6 447/6/6 452/6/6
f 451/1/6 446/1/6 452/1/6
f 452/6/6 447/6/6 453/6/6
f 448/3/6 449/3/6 454/3/6
f 441/3/6 448/3/6 454/3/6
f 449/5/6 450/5/6 455/5/6
f 454/3/6 449/3/6 455/3/6
f 450/1/6 451/1/6 456/1/6
f 455/5/6 450/5/6 456/5/6
f 451/6/6 452/6/6 457/6/6
f 456/1/6 451/1/6 457/1/6
f 452/1/6 453/1/6 458/1/6
f 457/6/6 452/6/6 458/6/6
f 458/1/6 453/1/6 459/1/6
