# MagicaVoxel @ Ephtracy

# group
o 

# material
mtllib main.mtl
usemtl palette

# normals
vn -1 0 0
vn 1 0 0
vn 0 0 1
vn 0 0 -1
vn 0 -1 0
vn 0 1 0

# texcoords
vt 0.970703 0.5
vt 0.974609 0.5
vt 0.978516 0.5
vt 0.982422 0.5

# verts
v -2.4 1.8 0.2
v -2.4 1.8 -1.78814e-07
v -2.4 2 0.2
v -2.4 2 -1.78814e-07
v -1 0.6 0.8
v -1 0.6 -0.8
v -1 1.8 0.2
v -1 1.8 -1.78814e-07
v -1 2 0.2
v -1 2 -1.78814e-07
v -1 2.6 0.8
v -1 2.6 -0.8
v -1 3.4 0.2
v -1 3.4 -1.78814e-07
v -1 3.6 -1.78814e-07
v -1 3.6 -0.2
v -1 3.8 0.2
v -1 3.8 -1.78814e-07
v -1 4 -1.78814e-07
v -1 4 -0.2
v -0.8 2.5 0.6
v -0.8 2.5 -0.6
v -0.8 3.4 0.2
v -0.8 3.4 -1.78814e-07
v -0.8 3.6 -1.78814e-07
v -0.8 3.6 -0.2
v -0.8 3.8 0.6
v -0.8 3.8 0.2
v -0.8 3.8 -0.2
v -0.8 3.8 -0.6
v -0.8 4 -1.78814e-07
v -0.8 4 -0.2
v -0.8 4.4 -1.78814e-07
v -0.8 4.4 -0.2
v -0.6 -0.2 0.8
v -0.6 -0.2 -1.78814e-07
v -0.6 5.96046e-08 0.8
v -0.6 5.96046e-08 0.2
v -0.6 0.6 0.2
v -0.6 0.6 -1.78814e-07
v -0.6 5.2 -1.78814e-07
v -0.6 5.2 -0.2
v -0.6 5.4 -1.78814e-07
v -0.6 5.4 -0.2
v -0.4 4 -1.78814e-07
v -0.4 4 -0.2
v -0.4 4.6 -1.78814e-07
v -0.4 4.6 -0.2
v -0.4 4.8 -1.78814e-07
v -0.4 4.8 -0.2
v -0.4 5 -1.78814e-07
v -0.4 5 -0.2
v -0.2 5.2 -1.78814e-07
v -0.2 5.2 -0.2
v -0.2 5.4 -1.78814e-07
v -0.2 5.4 -0.2
v 0 5.8 -1.78814e-07
v 0 5.8 -0.2
v 0 6 -1.78814e-07
v 0 6 -0.2
v 0.4 -0.2 0.8
v 0.4 -0.2 -1.78814e-07
v 0.4 5.96046e-08 0.8
v 0.4 5.96046e-08 0.2
v 0.4 0.6 0.2
v 0.4 0.6 -1.78814e-07
v 0.4 4.2 -1.78814e-07
v 0.4 4.2 -0.2
v 0.4 4.4 -1.78814e-07
v 0.4 4.4 -0.2
v 0.4 4.6 -1.78814e-07
v 0.4 4.6 -0.2
v 0.4 4.8 -1.78814e-07
v 0.4 4.8 -0.2
v 0.6 5.6 -1.78814e-07
v 0.6 5.6 -0.2
v 0.6 5.8 -1.78814e-07
v 0.6 5.8 -0.2
v 0.8 5.2 -1.78814e-07
v 0.8 5.2 -0.2
v 0.8 5.4 -1.78814e-07
v 0.8 5.4 -0.2
v 0.9 2.5 0.7
v 0.9 2.5 -0.7
v 0.9 2.6 0.7
v 0.9 2.6 -0.7
v -0.9 2.5 0.7
v -0.9 2.5 -0.7
v -0.9 2.6 0.7
v -0.9 2.6 -0.7
v -0.6 4 -1.78814e-07
v -0.6 4 -0.2
v -0.6 4.4 -1.78814e-07
v -0.6 4.4 -0.2
v -0.4 -0.2 0.8
v -0.4 -0.2 -1.78814e-07
v -0.4 5.96046e-08 0.8
v -0.4 5.96046e-08 0.2
v -0.4 0.6 0.2
v -0.4 0.6 -1.78814e-07
v -0.4 5.2 -1.78814e-07
v -0.4 5.2 -0.2
v -0.4 5.4 -1.78814e-07
v -0.4 5.4 -0.2
v -0.2 4.8 -1.78814e-07
v -0.2 4.8 -0.2
v -0.2 5 -1.78814e-07
v -0.2 5 -0.2
v 0 4.4 -1.78814e-07
v 0 4.4 -0.2
v 0 4.6 -1.78814e-07
v 0 4.6 -0.2
v 0 5.2 -1.78814e-07
v 0 5.2 -0.2
v 0 5.4 -1.78814e-07
v 0 5.4 -0.2
v 0.2 4.2 -1.78814e-07
v 0.2 4.2 -0.2
v 0.2 4.4 -1.78814e-07
v 0.2 4.4 -0.2
v 0.2 5.8 -1.78814e-07
v 0.2 5.8 -0.2
v 0.2 6 -1.78814e-07
v 0.2 6 -0.2
v 0.6 -0.2 0.8
v 0.6 -0.2 -1.78814e-07
v 0.6 5.96046e-08 0.8
v 0.6 5.96046e-08 0.2
v 0.6 0.6 0.2
v 0.6 0.6 -1.78814e-07
v 0.6 4.2 -1.78814e-07
v 0.6 4.2 -0.2
v 0.6 4.4 -1.78814e-07
v 0.6 4.4 -0.2
v 0.6 4.6 -1.78814e-07
v 0.6 4.6 -0.2
v 0.6 4.8 -1.78814e-07
v 0.6 4.8 -0.2
v 0.8 2.5 0.6
v 0.8 2.5 -0.6
v 0.8 3.4 -1.78814e-07
v 0.8 3.4 -0.2
v 0.8 3.8 0.6
v 0.8 3.8 -1.78814e-07
v 0.8 3.8 -0.2
v 0.8 3.8 -0.6
v 0.8 5.6 -1.78814e-07
v 0.8 5.6 -0.2
v 0.8 5.8 -1.78814e-07
v 0.8 5.8 -0.2
v 1 0.6 0.8
v 1 0.6 -0.8
v 1 1.8 0.2
v 1 1.8 -1.78814e-07
v 1 2 0.2
v 1 2 -1.78814e-07
v 1 2.6 0.8
v 1 2.6 -0.8
v 1 3.4 -1.78814e-07
v 1 3.4 -0.2
v 1 4.2 -1.78814e-07
v 1 4.2 -0.2
v 1 5.2 -1.78814e-07
v 1 5.2 -0.2
v 1 5.4 -1.78814e-07
v 1 5.4 -0.2
v 2.4 1.8 0.2
v 2.4 1.8 -1.78814e-07
v 2.4 2 0.2
v 2.4 2 -1.78814e-07
v -1 0.6 0.8
v -1 2.6 0.8
v -0.6 -0.2 0.8
v -0.6 5.96046e-08 0.8
v -0.4 -0.2 0.8
v -0.4 5.96046e-08 0.8
v 0.4 -0.2 0.8
v 0.4 5.96046e-08 0.8
v 0.6 -0.2 0.8
v 0.6 5.96046e-08 0.8
v 1 0.6 0.8
v 1 2.6 0.8
v -0.8 2.5 0.6
v -0.8 3.8 0.6
v -0.4 3.3 0.6
v -0.4 3.6 0.6
v -0.3 3 0.6
v -0.3 3.2 0.6
v -0.3 3.4 0.6
v -0.3 3.5 0.6
v -0.2 2.9 0.6
v -0.2 3 0.6
v -0.2 3.3 0.6
v -0.2 3.4 0.6
v -0.2 3.5 0.6
v -0.2 3.6 0.6
v 0.2 2.9 0.6
v 0.2 3 0.6
v 0.2 3.3 0.6
v 0.2 3.4 0.6
v 0.2 3.5 0.6
v 0.2 3.6 0.6
v 0.3 3 0.6
v 0.3 3.2 0.6
v 0.3 3.4 0.6
v 0.3 3.5 0.6
v 0.4 3.3 0.6
v 0.4 3.6 0.6
v 0.8 2.5 0.6
v 0.8 3.8 0.6
v -2.4 1.8 0.2
v -2.4 2 0.2
v -1 1.8 0.2
v -1 2 0.2
v -1 3.4 0.2
v -1 3.8 0.2
v -0.8 3.4 0.2
v -0.8 3.8 0.2
v -0.6 5.96046e-08 0.2
v -0.6 0.6 0.2
v -0.4 5.96046e-08 0.2
v -0.4 0.6 0.2
v 0.4 5.96046e-08 0.2
v 0.4 0.6 0.2
v 0.6 5.96046e-08 0.2
v 0.6 0.6 0.2
v 1 1.8 0.2
v 1 2 0.2
v 2.4 1.8 0.2
v 2.4 2 0.2
v -1 3.8 -1.78814e-07
v -1 4 -1.78814e-07
v -0.8 3.8 -1.78814e-07
v -0.8 4 -1.78814e-07
v -0.8 4.4 -1.78814e-07
v -0.6 4 -1.78814e-07
v -0.6 4.4 -1.78814e-07
v -0.6 5.2 -1.78814e-07
v -0.6 5.4 -1.78814e-07
v -0.4 4 -1.78814e-07
v -0.4 4.6 -1.78814e-07
v -0.4 4.8 -1.78814e-07
v -0.4 5 -1.78814e-07
v -0.4 5.2 -1.78814e-07
v -0.4 5.4 -1.78814e-07
v -0.2 4.8 -1.78814e-07
v -0.2 5 -1.78814e-07
v -0.2 5.2 -1.78814e-07
v -0.2 5.4 -1.78814e-07
v 0 4.4 -1.78814e-07
v 0 4.6 -1.78814e-07
v 0 5.2 -1.78814e-07
v 0 5.4 -1.78814e-07
v 0 5.8 -1.78814e-07
v 0 6 -1.78814e-07
v 0.2 4.2 -1.78814e-07
v 0.2 4.4 -1.78814e-07
v 0.2 5.8 -1.78814e-07
v 0.2 6 -1.78814e-07
v 0.4 4.2 -1.78814e-07
v 0.4 4.4 -1.78814e-07
v 0.4 4.6 -1.78814e-07
v 0.4 4.8 -1.78814e-07
v 0.6 4.2 -1.78814e-07
v 0.6 4.4 -1.78814e-07
v 0.6 4.6 -1.78814e-07
v 0.6 4.8 -1.78814e-07
v 0.6 5.6 -1.78814e-07
v 0.6 5.8 -1.78814e-07
v 0.8 3.4 -1.78814e-07
v 0.8 3.8 -1.78814e-07
v 0.8 5.2 -1.78814e-07
v 0.8 5.4 -1.78814e-07
v 0.8 5.6 -1.78814e-07
v 0.8 5.8 -1.78814e-07
v 1 3.4 -1.78814e-07
v 1 4.2 -1.78814e-07
v 1 5.2 -1.78814e-07
v 1 5.4 -1.78814e-07
v -0.9 2.5 -0.7
v -0.9 2.6 -0.7
v 0.9 2.5 -0.7
v 0.9 2.6 -0.7
v -0.9 2.5 0.7
v -0.9 2.6 0.7
v 0.9 2.5 0.7
v 0.9 2.6 0.7
v -2.4 1.8 -1.78814e-07
v -2.4 2 -1.78814e-07
v -1 1.8 -1.78814e-07
v -1 2 -1.78814e-07
v -1 3.4 -1.78814e-07
v -1 3.6 -1.78814e-07
v -0.8 3.4 -1.78814e-07
v -0.8 3.6 -1.78814e-07
v -0.6 -0.2 -1.78814e-07
v -0.6 0.6 -1.78814e-07
v -0.4 -0.2 -1.78814e-07
v -0.4 0.6 -1.78814e-07
v 0.4 -0.2 -1.78814e-07
v 0.4 0.6 -1.78814e-07
v 0.6 -0.2 -1.78814e-07
v 0.6 0.6 -1.78814e-07
v 1 1.8 -1.78814e-07
v 1 2 -1.78814e-07
v 2.4 1.8 -1.78814e-07
v 2.4 2 -1.78814e-07
v -1 3.6 -0.2
v -1 4 -0.2
v -0.8 3.6 -0.2
v -0.8 3.8 -0.2
v -0.8 4 -0.2
v -0.8 4.4 -0.2
v -0.6 4 -0.2
v -0.6 4.4 -0.2
v -0.6 5.2 -0.2
v -0.6 5.4 -0.2
v -0.4 4 -0.2
v -0.4 4.6 -0.2
v -0.4 4.8 -0.2
v -0.4 5 -0.2
v -0.4 5.2 -0.2
v -0.4 5.4 -0.2
v -0.2 4.8 -0.2
v -0.2 5 -0.2
v -0.2 5.2 -0.2
v -0.2 5.4 -0.2
v 0 4.4 -0.2
v 0 4.6 -0.2
v 0 5.2 -0.2
v 0 5.4 -0.2
v 0 5.8 -0.2
v 0 6 -0.2
v 0.2 4.2 -0.2
v 0.2 4.4 -0.2
v 0.2 5.8 -0.2
v 0.2 6 -0.2
v 0.4 4.2 -0.2
v 0.4 4.4 -0.2
v 0.4 4.6 -0.2
v 0.4 4.8 -0.2
v 0.6 4.2 -0.2
v 0.6 4.4 -0.2
v 0.6 4.6 -0.2
v 0.6 4.8 -0.2
v 0.6 5.6 -0.2
v 0.6 5.8 -0.2
v 0.8 3.4 -0.2
v 0.8 3.8 -0.2
v 0.8 5.2 -0.2
v 0.8 5.4 -0.2
v 0.8 5.6 -0.2
v 0.8 5.8 -0.2
v 1 3.4 -0.2
v 1 4.2 -0.2
v 1 5.2 -0.2
v 1 5.4 -0.2
v -0.8 2.5 -0.6
v -0.8 3.8 -0.6
v 0.8 2.5 -0.6
v 0.8 3.8 -0.6
v -1 0.6 -0.8
v -1 2.6 -0.8
v 1 0.6 -0.8
v 1 2.6 -0.8
v -0.6 -0.2 0.8
v -0.4 -0.2 0.8
v 0.4 -0.2 0.8
v 0.6 -0.2 0.8
v -0.6 -0.2 -1.78814e-07
v -0.4 -0.2 -1.78814e-07
v 0.4 -0.2 -1.78814e-07
v 0.6 -0.2 -1.78814e-07
v -1 0.6 0.8
v 1 0.6 0.8
v -0.6 0.6 0.2
v -0.4 0.6 0.2
v 0.4 0.6 0.2
v 0.6 0.6 0.2
v -0.6 0.6 -1.78814e-07
v -0.4 0.6 -1.78814e-07
v 0.4 0.6 -1.78814e-07
v 0.6 0.6 -1.78814e-07
v -1 0.6 -0.8
v 1 0.6 -0.8
v -2.4 1.8 0.2
v -1 1.8 0.2
v 1 1.8 0.2
v 2.4 1.8 0.2
v -2.4 1.8 -1.78814e-07
v -1 1.8 -1.78814e-07
v 1 1.8 -1.78814e-07
v 2.4 1.8 -1.78814e-07
v -1 3.4 0.2
v -0.8 3.4 0.2
v -1 3.4 -1.78814e-07
v -0.8 3.4 -1.78814e-07
v 0.8 3.4 -1.78814e-07
v 1 3.4 -1.78814e-07
v 0.8 3.4 -0.2
v 1 3.4 -0.2
v -1 3.6 -1.78814e-07
v -0.8 3.6 -1.78814e-07
v -1 3.6 -0.2
v -0.8 3.6 -0.2
v 0.4 4.6 -1.78814e-07
v 0.6 4.6 -1.78814e-07
v 0.4 4.6 -0.2
v 0.6 4.6 -0.2
v -0.4 4.8 -1.78814e-07
v -0.2 4.8 -1.78814e-07
v -0.4 4.8 -0.2
v -0.2 4.8 -0.2
v -0.6 5.2 -1.78814e-07
v -0.4 5.2 -1.78814e-07
v -0.2 5.2 -1.78814e-07
v 0 5.2 -1.78814e-07
v 0.8 5.2 -1.78814e-07
v 1 5.2 -1.78814e-07
v -0.6 5.2 -0.2
v -0.4 5.2 -0.2
v -0.2 5.2 -0.2
v 0 5.2 -0.2
v 0.8 5.2 -0.2
v 1 5.2 -0.2
v 0.6 5.6 -1.78814e-07
v 0.8 5.6 -1.78814e-07
v 0.6 5.6 -0.2
v 0.8 5.6 -0.2
v 0 5.8 -1.78814e-07
v 0.2 5.8 -1.78814e-07
v 0 5.8 -0.2
v 0.2 5.8 -0.2
v -0.6 5.96046e-08 0.8
v -0.4 5.96046e-08 0.8
v 0.4 5.96046e-08 0.8
v 0.6 5.96046e-08 0.8
v -0.6 5.96046e-08 0.2
v -0.4 5.96046e-08 0.2
v 0.4 5.96046e-08 0.2
v 0.6 5.96046e-08 0.2
v -2.4 2 0.2
v -1 2 0.2
v 1 2 0.2
v 2.4 2 0.2
v -2.4 2 -1.78814e-07
v -1 2 -1.78814e-07
v 1 2 -1.78814e-07
v 2.4 2 -1.78814e-07
v -0.9 2.5 0.7
v 0.9 2.5 0.7
v -0.8 2.5 0.6
v 0.8 2.5 0.6
v -0.8 2.5 -0.6
v 0.8 2.5 -0.6
v -0.9 2.5 -0.7
v 0.9 2.5 -0.7
v -1 2.6 0.8
v 1 2.6 0.8
v -0.9 2.6 0.7
v 0.9 2.6 0.7
v -0.9 2.6 -0.7
v 0.9 2.6 -0.7
v -1 2.6 -0.8
v 1 2.6 -0.8
v -0.8 3.8 0.6
v 0.8 3.8 0.6
v -1 3.8 0.2
v -0.8 3.8 0.2
v -1 3.8 -1.78814e-07
v -0.8 3.8 -1.78814e-07
v 0.8 3.8 -1.78814e-07
v -0.8 3.8 -0.2
v 0.8 3.8 -0.2
v -0.8 3.8 -0.6
v 0.8 3.8 -0.6
v -1 4 -1.78814e-07
v -0.8 4 -1.78814e-07
v -0.6 4 -1.78814e-07
v -0.4 4 -1.78814e-07
v -1 4 -0.2
v -0.8 4 -0.2
v -0.6 4 -0.2
v -0.4 4 -0.2
v 0.2 4.2 -1.78814e-07
v 0.4 4.2 -1.78814e-07
v 0.6 4.2 -1.78814e-07
v 1 4.2 -1.78814e-07
v 0.2 4.2 -0.2
v 0.4 4.2 -0.2
v 0.6 4.2 -0.2
v 1 4.2 -0.2
v -0.8 4.4 -1.78814e-07
v -0.6 4.4 -1.78814e-07
v 0 4.4 -1.78814e-07
v 0.2 4.4 -1.78814e-07
v 0.4 4.4 -1.78814e-07
v 0.6 4.4 -1.78814e-07
v -0.8 4.4 -0.2
v -0.6 4.4 -0.2
v 0 4.4 -0.2
v 0.2 4.4 -0.2
v 0.4 4.4 -0.2
v 0.6 4.4 -0.2
v -0.4 4.6 -1.78814e-07
v 0 4.6 -1.78814e-07
v -0.4 4.6 -0.2
v 0 4.6 -0.2
v 0.4 4.8 -1.78814e-07
v 0.6 4.8 -1.78814e-07
v 0.4 4.8 -0.2
v 0.6 4.8 -0.2
v -0.4 5 -1.78814e-07
v -0.2 5 -1.78814e-07
v -0.4 5 -0.2
v -0.2 5 -0.2
v -0.6 5.4 -1.78814e-07
v -0.4 5.4 -1.78814e-07
v -0.2 5.4 -1.78814e-07
v 0 5.4 -1.78814e-07
v 0.8 5.4 -1.78814e-07
v 1 5.4 -1.78814e-07
v -0.6 5.4 -0.2
v -0.4 5.4 -0.2
v -0.2 5.4 -0.2
v 0 5.4 -0.2
v 0.8 5.4 -0.2
v 1 5.4 -0.2
v 0.6 5.8 -1.78814e-07
v 0.8 5.8 -1.78814e-07
v 0.6 5.8 -0.2
v 0.8 5.8 -0.2
v 0 6 -1.78814e-07
v 0.2 6 -1.78814e-07
v 0 6 -0.2
v 0.2 6 -0.2

# faces
f 3/1/1 2/1/1 1/1/1
f 4/1/1 2/1/1 3/1/1
f 7/1/1 6/1/1 5/1/1
f 8/1/1 6/1/1 7/1/1
f 9/1/1 7/1/1 5/1/1
f 10/1/1 6/1/1 8/1/1
f 11/1/1 9/1/1 5/1/1
f 11/1/1 10/1/1 9/1/1
f 12/1/1 6/1/1 10/1/1
f 12/1/1 10/1/1 11/1/1
f 15/2/1 14/2/1 13/2/1
f 17/2/1 15/2/1 13/2/1
f 17/2/1 16/2/1 15/2/1
f 18/2/1 16/2/1 17/2/1
f 19/2/1 16/2/1 18/2/1
f 20/2/1 16/2/1 19/2/1
f 23/1/1 22/1/1 21/1/1
f 24/1/1 22/1/1 23/1/1
f 25/1/1 22/1/1 24/1/1
f 26/1/1 22/1/1 25/1/1
f 27/1/1 23/1/1 21/1/1
f 28/1/1 23/1/1 27/1/1
f 29/1/1 22/1/1 26/1/1
f 30/1/1 22/1/1 29/1/1
f 33/2/1 32/2/1 31/2/1
f 34/2/1 32/2/1 33/2/1
f 37/1/1 36/1/1 35/1/1
f 38/1/1 36/1/1 37/1/1
f 39/1/1 36/1/1 38/1/1
f 40/1/1 36/1/1 39/1/1
f 43/2/1 42/2/1 41/2/1
f 44/2/1 42/2/1 43/2/1
f 47/2/1 46/2/1 45/2/1
f 48/2/1 46/2/1 47/2/1
f 51/2/1 50/2/1 49/2/1
f 52/2/1 50/2/1 51/2/1
f 55/2/1 54/2/1 53/2/1
f 56/2/1 54/2/1 55/2/1
f 59/2/1 58/2/1 57/2/1
f 60/2/1 58/2/1 59/2/1
f 63/1/1 62/1/1 61/1/1
f 64/1/1 62/1/1 63/1/1
f 65/1/1 62/1/1 64/1/1
f 66/1/1 62/1/1 65/1/1
f 69/2/1 68/2/1 67/2/1
f 70/2/1 68/2/1 69/2/1
f 73/2/1 72/2/1 71/2/1
f 74/2/1 72/2/1 73/2/1
f 77/2/1 76/2/1 75/2/1
f 78/2/1 76/2/1 77/2/1
f 81/2/1 80/2/1 79/2/1
f 82/2/1 80/2/1 81/2/1
f 85/1/1 84/1/1 83/1/1
f 86/1/1 84/1/1 85/1/1
f 87/1/2 88/1/2 89/1/2
f 89/1/2 88/1/2 90/1/2
f 91/2/2 92/2/2 93/2/2
f 93/2/2 92/2/2 94/2/2
f 95/1/2 96/1/2 97/1/2
f 97/1/2 96/1/2 98/1/2
f 98/1/2 96/1/2 99/1/2
f 99/1/2 96/1/2 100/1/2
f 101/2/2 102/2/2 103/2/2
f 103/2/2 102/2/2 104/2/2
f 105/2/2 106/2/2 107/2/2
f 107/2/2 106/2/2 108/2/2
f 109/2/2 110/2/2 111/2/2
f 111/2/2 110/2/2 112/2/2
f 113/2/2 114/2/2 115/2/2
f 115/2/2 114/2/2 116/2/2
f 117/2/2 118/2/2 119/2/2
f 119/2/2 118/2/2 120/2/2
f 121/2/2 122/2/2 123/2/2
f 123/2/2 122/2/2 124/2/2
f 125/1/2 126/1/2 127/1/2
f 127/1/2 126/1/2 128/1/2
f 128/1/2 126/1/2 129/1/2
f 129/1/2 126/1/2 130/1/2
f 131/2/2 132/2/2 133/2/2
f 133/2/2 132/2/2 134/2/2
f 135/2/2 136/2/2 137/2/2
f 137/2/2 136/2/2 138/2/2
f 139/1/2 140/1/2 141/1/2
f 141/1/2 140/1/2 142/1/2
f 139/1/2 141/1/2 143/1/2
f 143/1/2 141/1/2 144/1/2
f 142/1/2 140/1/2 145/1/2
f 145/1/2 140/1/2 146/1/2
f 147/2/2 148/2/2 149/2/2
f 149/2/2 148/2/2 150/2/2
f 151/1/2 152/1/2 153/1/2
f 153/1/2 152/1/2 154/1/2
f 151/1/2 153/1/2 155/1/2
f 154/1/2 152/1/2 156/1/2
f 151/1/2 155/1/2 157/1/2
f 155/1/2 156/1/2 157/1/2
f 156/1/2 152/1/2 158/1/2
f 157/1/2 156/1/2 158/1/2
f 159/2/2 160/2/2 161/2/2
f 161/2/2 160/2/2 162/2/2
f 163/2/2 164/2/2 165/2/2
f 165/2/2 164/2/2 166/2/2
f 167/1/2 168/1/2 169/1/2
f 169/1/2 168/1/2 170/1/2
f 175/1/3 174/1/3 173/1/3
f 176/1/3 174/1/3 175/1/3
f 179/1/3 178/1/3 177/1/3
f 180/1/3 178/1/3 179/1/3
f 181/1/3 172/1/3 171/1/3
f 182/1/3 172/1/3 181/1/3
f 185/1/3 184/1/3 183/1/3
f 186/1/3 184/1/3 185/1/3
f 187/1/3 185/1/3 183/1/3
f 188/1/3 185/1/3 187/1/3
f 189/3/3 186/3/3 185/3/3
f 190/3/3 186/3/3 189/3/3
f 191/1/3 187/1/3 183/1/3
f 192/3/3 188/3/3 187/3/3
f 192/1/3 187/1/3 191/1/3
f 193/1/3 185/1/3 188/1/3
f 193/3/3 189/3/3 185/3/3
f 194/4/3 190/4/3 189/4/3
f 194/3/3 189/3/3 193/3/3
f 195/3/3 186/3/3 190/3/3
f 195/4/3 190/4/3 194/4/3
f 196/1/3 184/1/3 186/1/3
f 196/3/3 186/3/3 195/3/3
f 197/1/3 191/1/3 183/1/3
f 197/3/3 192/3/3 191/3/3
f 198/3/3 188/3/3 192/3/3
f 198/3/3 192/3/3 197/3/3
f 199/1/3 195/1/3 194/1/3
f 199/1/3 194/1/3 193/1/3
f 199/1/3 196/1/3 195/1/3
f 199/1/3 193/1/3 188/1/3
f 200/1/3 196/1/3 199/1/3
f 201/1/3 196/1/3 200/1/3
f 202/1/3 184/1/3 196/1/3
f 202/1/3 196/1/3 201/1/3
f 203/3/3 188/3/3 198/3/3
f 203/1/3 198/1/3 197/1/3
f 204/1/3 199/1/3 188/1/3
f 204/3/3 188/3/3 203/3/3
f 205/4/3 201/4/3 200/4/3
f 205/3/3 200/3/3 199/3/3
f 206/3/3 202/3/3 201/3/3
f 206/4/3 201/4/3 205/4/3
f 207/3/3 205/3/3 199/3/3
f 207/1/3 199/1/3 204/1/3
f 207/3/3 206/3/3 205/3/3
f 207/1/3 204/1/3 203/1/3
f 208/1/3 184/1/3 202/1/3
f 208/3/3 206/3/3 207/3/3
f 208/3/3 202/3/3 206/3/3
f 209/1/3 207/1/3 203/1/3
f 209/1/3 197/1/3 183/1/3
f 209/1/3 208/1/3 207/1/3
f 209/1/3 203/1/3 197/1/3
f 210/1/3 184/1/3 208/1/3
f 210/1/3 208/1/3 209/1/3
f 213/1/3 212/1/3 211/1/3
f 214/1/3 212/1/3 213/1/3
f 217/2/3 216/2/3 215/2/3
f 218/2/3 216/2/3 217/2/3
f 221/1/3 220/1/3 219/1/3
f 222/1/3 220/1/3 221/1/3
f 225/1/3 224/1/3 223/1/3
f 226/1/3 224/1/3 225/1/3
f 229/1/3 228/1/3 227/1/3
f 230/1/3 228/1/3 229/1/3
f 233/2/3 232/2/3 231/2/3
f 234/2/3 232/2/3 233/2/3
f 236/2/3 234/2/3 233/2/3
f 236/2/3 235/2/3 234/2/3
f 237/2/3 235/2/3 236/2/3
f 240/2/3 236/2/3 233/2/3
f 244/2/3 239/2/3 238/2/3
f 245/2/3 239/2/3 244/2/3
f 246/2/3 243/2/3 242/2/3
f 247/2/3 243/2/3 246/2/3
f 250/2/3 241/2/3 240/2/3
f 251/2/3 241/2/3 250/2/3
f 252/2/3 249/2/3 248/2/3
f 253/2/3 249/2/3 252/2/3
f 256/2/3 250/2/3 240/2/3
f 257/2/3 250/2/3 256/2/3
f 258/2/3 255/2/3 254/2/3
f 259/2/3 255/2/3 258/2/3
f 260/2/3 256/2/3 240/2/3
f 264/2/3 260/2/3 240/2/3
f 264/2/3 261/2/3 260/2/3
f 265/2/3 261/2/3 264/2/3
f 266/2/3 263/2/3 262/2/3
f 267/2/3 263/2/3 266/2/3
f 271/2/3 240/2/3 233/2/3
f 271/2/3 264/2/3 240/2/3
f 274/2/3 269/2/3 268/2/3
f 275/2/3 269/2/3 274/2/3
f 276/2/3 271/2/3 270/2/3
f 277/2/3 264/2/3 271/2/3
f 277/2/3 271/2/3 276/2/3
f 278/2/3 273/2/3 272/2/3
f 279/2/3 273/2/3 278/2/3
f 282/1/3 281/1/3 280/1/3
f 283/1/3 281/1/3 282/1/3
f 284/1/4 285/1/4 286/1/4
f 286/1/4 285/1/4 287/1/4
f 288/1/4 289/1/4 290/1/4
f 290/1/4 289/1/4 291/1/4
f 292/2/4 293/2/4 294/2/4
f 294/2/4 293/2/4 295/2/4
f 296/1/4 297/1/4 298/1/4
f 298/1/4 297/1/4 299/1/4
f 300/1/4 301/1/4 302/1/4
f 302/1/4 301/1/4 303/1/4
f 304/1/4 305/1/4 306/1/4
f 306/1/4 305/1/4 307/1/4
f 308/2/4 309/2/4 310/2/4
f 310/2/4 309/2/4 311/2/4
f 311/2/4 309/2/4 312/2/4
f 312/2/4 313/2/4 314/2/4
f 311/2/4 312/2/4 314/2/4
f 314/2/4 313/2/4 315/2/4
f 311/2/4 314/2/4 318/2/4
f 316/2/4 317/2/4 322/2/4
f 322/2/4 317/2/4 323/2/4
f 320/2/4 321/2/4 324/2/4
f 324/2/4 321/2/4 325/2/4
f 318/2/4 319/2/4 328/2/4
f 328/2/4 319/2/4 329/2/4
f 326/2/4 327/2/4 330/2/4
f 330/2/4 327/2/4 331/2/4
f 318/2/4 328/2/4 334/2/4
f 334/2/4 328/2/4 335/2/4
f 332/2/4 333/2/4 336/2/4
f 336/2/4 333/2/4 337/2/4
f 318/2/4 334/2/4 338/2/4
f 318/2/4 338/2/4 342/2/4
f 338/2/4 339/2/4 342/2/4
f 342/2/4 339/2/4 343/2/4
f 340/2/4 341/2/4 344/2/4
f 344/2/4 341/2/4 345/2/4
f 311/2/4 318/2/4 349/2/4
f 318/2/4 342/2/4 349/2/4
f 346/2/4 347/2/4 352/2/4
f 352/2/4 347/2/4 353/2/4
f 348/2/4 349/2/4 354/2/4
f 349/2/4 342/2/4 355/2/4
f 354/2/4 349/2/4 355/2/4
f 350/2/4 351/2/4 356/2/4
f 356/2/4 351/2/4 357/2/4
f 358/1/4 359/1/4 360/1/4
f 360/1/4 359/1/4 361/1/4
f 362/1/4 363/1/4 364/1/4
f 364/1/4 363/1/4 365/1/4
f 370/1/5 367/1/5 366/1/5
f 371/1/5 367/1/5 370/1/5
f 372/1/5 369/1/5 368/1/5
f 373/1/5 369/1/5 372/1/5
f 376/1/5 375/1/5 374/1/5
f 377/1/5 375/1/5 376/1/5
f 378/1/5 375/1/5 377/1/5
f 379/1/5 375/1/5 378/1/5
f 380/1/5 376/1/5 374/1/5
f 381/1/5 378/1/5 377/1/5
f 382/1/5 378/1/5 381/1/5
f 383/1/5 375/1/5 379/1/5
f 384/1/5 382/1/5 381/1/5
f 384/1/5 383/1/5 382/1/5
f 384/1/5 380/1/5 374/1/5
f 384/1/5 381/1/5 380/1/5
f 385/1/5 375/1/5 383/1/5
f 385/1/5 383/1/5 384/1/5
f 390/1/5 387/1/5 386/1/5
f 391/1/5 387/1/5 390/1/5
f 392/1/5 389/1/5 388/1/5
f 393/1/5 389/1/5 392/1/5
f 396/2/5 395/2/5 394/2/5
f 397/2/5 395/2/5 396/2/5
f 400/2/5 399/2/5 398/2/5
f 401/2/5 399/2/5 400/2/5
f 404/2/5 403/2/5 402/2/5
f 405/2/5 403/2/5 404/2/5
f 408/2/5 407/2/5 406/2/5
f 409/2/5 407/2/5 408/2/5
f 412/2/5 411/2/5 410/2/5
f 413/2/5 411/2/5 412/2/5
f 420/2/5 415/2/5 414/2/5
f 421/2/5 415/2/5 420/2/5
f 422/2/5 417/2/5 416/2/5
f 423/2/5 417/2/5 422/2/5
f 424/2/5 419/2/5 418/2/5
f 425/2/5 419/2/5 424/2/5
f 428/2/5 427/2/5 426/2/5
f 429/2/5 427/2/5 428/2/5
f 432/2/5 431/2/5 430/2/5
f 433/2/5 431/2/5 432/2/5
f 434/1/6 435/1/6 438/1/6
f 438/1/6 435/1/6 439/1/6
f 436/1/6 437/1/6 440/1/6
f 440/1/6 437/1/6 441/1/6
f 442/1/6 443/1/6 446/1/6
f 446/1/6 443/1/6 447/1/6
f 444/1/6 445/1/6 448/1/6
f 448/1/6 445/1/6 449/1/6
f 450/1/6 451/1/6 452/1/6
f 452/1/6 451/1/6 453/1/6
f 450/1/6 452/1/6 454/1/6
f 453/1/6 451/1/6 455/1/6
f 450/1/6 454/1/6 456/1/6
f 454/1/6 455/1/6 456/1/6
f 455/1/6 451/1/6 457/1/6
f 456/1/6 455/1/6 457/1/6
f 458/1/6 459/1/6 460/1/6
f 460/1/6 459/1/6 461/1/6
f 458/1/6 460/1/6 462/1/6
f 461/1/6 459/1/6 463/1/6
f 458/1/6 462/1/6 464/1/6
f 462/1/6 463/1/6 464/1/6
f 463/1/6 459/1/6 465/1/6
f 464/1/6 463/1/6 465/1/6
f 466/1/6 467/1/6 469/1/6
f 468/2/6 469/2/6 470/2/6
f 469/1/6 467/1/6 471/1/6
f 470/2/6 469/2/6 471/2/6
f 471/1/6 467/1/6 472/1/6
f 473/1/6 474/1/6 475/1/6
f 475/1/6 474/1/6 476/1/6
f 477/2/6 478/2/6 481/2/6
f 481/2/6 478/2/6 482/2/6
f 479/2/6 480/2/6 483/2/6
f 483/2/6 480/2/6 484/2/6
f 485/2/6 486/2/6 489/2/6
f 489/2/6 486/2/6 490/2/6
f 487/2/6 488/2/6 491/2/6
f 491/2/6 488/2/6 492/2/6
f 493/2/6 494/2/6 499/2/6
f 499/2/6 494/2/6 500/2/6
f 495/2/6 496/2/6 501/2/6
f 501/2/6 496/2/6 502/2/6
f 497/2/6 498/2/6 503/2/6
f 503/2/6 498/2/6 504/2/6
f 505/2/6 506/2/6 507/2/6
f 507/2/6 506/2/6 508/2/6
f 509/2/6 510/2/6 511/2/6
f 511/2/6 510/2/6 512/2/6
f 513/2/6 514/2/6 515/2/6
f 515/2/6 514/2/6 516/2/6
f 517/2/6 518/2/6 523/2/6
f 523/2/6 518/2/6 524/2/6
f 519/2/6 520/2/6 525/2/6
f 525/2/6 520/2/6 526/2/6
f 521/2/6 522/2/6 527/2/6
f 527/2/6 522/2/6 528/2/6
f 529/2/6 530/2/6 531/2/6
f 531/2/6 530/2/6 532/2/6
f 533/2/6 534/2/6 535/2/6
f 535/2/6 534/2/6 536/2/6
