# MagicaVoxel @ Ephtracy

# group
o 

# material
mtllib main.mtl
usemtl palette

# normals
vn -1 0 0
vn 1 0 0
vn 0 0 1
vn 0 0 -1
vn 0 -1 0
vn 0 1 0

# texcoords
vt 0.306641 0.5
vt 0.693359 0.5
vt 0.814453 0.5
vt 0.970703 0.5
vt 0.974609 0.5
vt 0.982422 0.5
vt 0.986328 0.5
vt 0.990234 0.5
vt 0.994141 0.5

# verts
v -0.7 2.9 0.6
v -0.7 2.9 -0.6
v -0.7 4.1 0.6
v -0.7 4.1 -0.6
v -0.5 1.3 0.6
v -0.5 1.3 -0.6
v -0.5 2.7 0.6
v -0.5 2.7 -0.6
v -0.3 -0.1 0.6
v -0.3 -0.1 0.2
v -0.3 -0.1 -0.2
v -0.3 -0.1 -0.6
v -0.3 0.2 0.6
v -0.3 0.2 0.2
v -0.3 0.2 -0.2
v -0.3 0.2 -0.6
v -0.3 0.3 0.6
v -0.3 0.3 0.2
v -0.3 0.3 -0.2
v -0.3 0.3 -0.6
v -0.3 1.3 0.6
v -0.3 1.3 0.2
v -0.3 1.3 -0.2
v -0.3 1.3 -0.6
v -0.3 2.1 2
v -0.3 2.1 1.7
v -0.3 2.1 1.6
v -0.3 2.1 0.6
v -0.3 2.1 -0.6
v -0.3 2.1 -1.6
v -0.3 2.1 -1.7
v -0.3 2.1 -2
v -0.3 2.5 2
v -0.3 2.5 1.7
v -0.3 2.5 1.6
v -0.3 2.5 0.6
v -0.3 2.5 -0.6
v -0.3 2.5 -1.6
v -0.3 2.5 -1.7
v -0.3 2.5 -2
v -0.3 2.7 0.2
v -0.3 2.7 -0.2
v -0.3 2.9 0.2
v -0.3 2.9 -0.2
v -0.1 3.3 0.8
v -0.1 3.3 0.6
v -0.1 3.3 -0.6
v -0.1 3.3 -0.8
v -0.1 3.7 0.8
v -0.1 3.7 0.6
v -0.1 3.7 -0.6
v -0.1 3.7 -0.8
v 0.1 0.2 0.6
v 0.1 0.2 0.2
v 0.1 0.2 -0.2
v 0.1 0.2 -0.6
v 0.1 0.3 0.6
v 0.1 0.3 0.2
v 0.1 0.3 -0.2
v 0.1 0.3 -0.6
v 0.1 1.3 0.6
v 0.1 1.3 0.2
v 0.1 1.3 -0.2
v 0.1 1.3 -0.6
v 0.1 2.1 2
v 0.1 2.1 1.7
v 0.1 2.1 1.6
v 0.1 2.1 0.6
v 0.1 2.1 -0.6
v 0.1 2.1 -1.6
v 0.1 2.1 -1.7
v 0.1 2.1 -2
v 0.1 2.5 2
v 0.1 2.5 1.7
v 0.1 2.5 1.6
v 0.1 2.5 0.6
v 0.1 2.5 -0.6
v 0.1 2.5 -1.6
v 0.1 2.5 -1.7
v 0.1 2.5 -2
v 0.1 2.7 0.2
v 0.1 2.7 -0.2
v 0.1 2.9 0.2
v 0.1 2.9 -0.2
v 0.1 3.3 0.8
v 0.1 3.3 0.6
v 0.1 3.3 -0.6
v 0.1 3.3 -0.8
v 0.1 3.6 0.6
v 0.1 3.6 -0.6
v 0.1 3.7 0.8
v 0.1 3.7 0.6
v 0.1 3.7 -0.6
v 0.1 3.7 -0.8
v 0.3 1.3 0.6
v 0.3 1.3 0.0999999
v 0.3 1.3 -0.1
v 0.3 1.3 -0.6
v 0.3 2.5 0.2
v 0.3 2.5 0.0999999
v 0.3 2.7 0.6
v 0.3 2.7 0.2
v 0.3 2.7 -0.1
v 0.3 2.7 -0.6
v 0.3 2.9 0.6
v 0.3 2.9 0.2
v 0.3 2.9 -0.2
v 0.3 2.9 -0.6
v 0.3 3 0.3
v 0.3 3 0.2
v 0.3 3 -0.2
v 0.3 3 -0.3
v 0.3 3.1 0.2
v 0.3 3.1 -0.2
v 0.3 3.2 0.3
v 0.3 3.2 0.2
v 0.3 3.2 -0.2
v 0.3 3.2 -0.3
v 0.3 3.3 0.2
v 0.3 3.3 -0.2
v 0.3 3.4 0.5
v 0.3 3.4 0.0999999
v 0.3 3.4 -0.1
v 0.3 3.4 -0.5
v 0.3 3.5 0.4
v 0.3 3.5 0.3
v 0.3 3.5 0.2
v 0.3 3.5 0.0999999
v 0.3 3.5 -0.1
v 0.3 3.5 -0.2
v 0.3 3.5 -0.3
v 0.3 3.5 -0.4
v 0.3 3.6 0.6
v 0.3 3.6 0.5
v 0.3 3.6 0.4
v 0.3 3.6 0.3
v 0.3 3.6 0.2
v 0.3 3.6 0.0999999
v 0.3 3.6 -0.1
v 0.3 3.6 -0.2
v 0.3 3.6 -0.3
v 0.3 3.6 -0.4
v 0.3 3.6 -0.5
v 0.3 3.6 -0.6
v 0.3 3.7 0.6
v 0.3 3.7 -0.6
v 0.3 4.1 0.6
v 0.3 4.1 -0.6
v 0.4 3.4 0.0999999
v 0.4 3.4 -0.1
v 0.4 3.5 0.0999999
v 0.4 3.5 -0.1
v 0.5 -0.1 0.6
v 0.5 -0.1 0.2
v 0.5 -0.1 -0.2
v 0.5 -0.1 -0.6
v 0.5 0.2 0.6
v 0.5 0.2 0.2
v 0.5 0.2 -0.2
v 0.5 0.2 -0.6
v -0.3 2.1 2
v -0.3 2.5 2
v 0.1 2.1 2
v 0.1 2.5 2
v -0.1 3.3 0.8
v -0.1 3.7 0.8
v 0.1 3.3 0.8
v 0.1 3.7 0.8
v -0.7 2.9 0.6
v -0.7 4.1 0.6
v -0.5 1.3 0.6
v -0.5 2.7 0.6
v -0.3 -0.1 0.6
v -0.3 0.2 0.6
v -0.3 0.3 0.6
v -0.3 1.3 0.6
v -0.3 2.1 0.6
v -0.3 2.5 0.6
v -0.1 3.3 0.6
v -0.1 3.7 0.6
v 0.1 0.2 0.6
v 0.1 0.3 0.6
v 0.1 1.3 0.6
v 0.1 2.1 0.6
v 0.1 2.5 0.6
v 0.1 3.3 0.6
v 0.1 3.6 0.6
v 0.1 3.7 0.6
v 0.3 1.3 0.6
v 0.3 2.7 0.6
v 0.3 2.9 0.6
v 0.3 3.6 0.6
v 0.3 3.7 0.6
v 0.3 4.1 0.6
v 0.5 -0.1 0.6
v 0.5 0.2 0.6
v -0.3 2.7 0.2
v -0.3 2.9 0.2
v 0.1 2.7 0.2
v 0.1 2.9 0.2
v 0.3 3.4 0.0999999
v 0.3 3.5 0.0999999
v 0.4 3.4 0.0999999
v 0.4 3.5 0.0999999
v -0.3 -0.1 -0.2
v -0.3 0.2 -0.2
v -0.3 0.3 -0.2
v -0.3 1.3 -0.2
v 0.1 0.2 -0.2
v 0.1 0.3 -0.2
v 0.1 1.3 -0.2
v 0.5 -0.1 -0.2
v 0.5 0.2 -0.2
v -0.3 -0.1 0.2
v -0.3 0.2 0.2
v -0.3 0.3 0.2
v -0.3 1.3 0.2
v 0.1 0.2 0.2
v 0.1 0.3 0.2
v 0.1 1.3 0.2
v 0.5 -0.1 0.2
v 0.5 0.2 0.2
v 0.3 3.4 -0.1
v 0.3 3.5 -0.1
v 0.4 3.4 -0.1
v 0.4 3.5 -0.1
v -0.3 2.7 -0.2
v -0.3 2.9 -0.2
v 0.1 2.7 -0.2
v 0.1 2.9 -0.2
v -0.7 2.9 -0.6
v -0.7 4.1 -0.6
v -0.5 1.3 -0.6
v -0.5 2.7 -0.6
v -0.3 -0.1 -0.6
v -0.3 0.2 -0.6
v -0.3 0.3 -0.6
v -0.3 1.3 -0.6
v -0.3 2.1 -0.6
v -0.3 2.5 -0.6
v -0.1 3.3 -0.6
v -0.1 3.7 -0.6
v 0.1 0.2 -0.6
v 0.1 0.3 -0.6
v 0.1 1.3 -0.6
v 0.1 2.1 -0.6
v 0.1 2.5 -0.6
v 0.1 3.3 -0.6
v 0.1 3.6 -0.6
v 0.1 3.7 -0.6
v 0.3 1.3 -0.6
v 0.3 2.7 -0.6
v 0.3 2.9 -0.6
v 0.3 3.6 -0.6
v 0.3 3.7 -0.6
v 0.3 4.1 -0.6
v 0.5 -0.1 -0.6
v 0.5 0.2 -0.6
v -0.1 3.3 -0.8
v -0.1 3.7 -0.8
v 0.1 3.3 -0.8
v 0.1 3.7 -0.8
v -0.3 2.1 -2
v -0.3 2.5 -2
v 0.1 2.1 -2
v 0.1 2.5 -2
v -0.3 -0.1 0.6
v 0.5 -0.1 0.6
v -0.3 -0.1 0.2
v 0.5 -0.1 0.2
v -0.3 -0.1 -0.2
v 0.5 -0.1 -0.2
v -0.3 -0.1 -0.6
v 0.5 -0.1 -0.6
v -0.5 1.3 0.6
v -0.3 1.3 0.6
v 0.1 1.3 0.6
v 0.3 1.3 0.6
v -0.3 1.3 0.2
v 0.1 1.3 0.2
v 0.2 1.3 0.0999999
v 0.3 1.3 0.0999999
v 0.2 1.3 -0.1
v 0.3 1.3 -0.1
v -0.3 1.3 -0.2
v 0.1 1.3 -0.2
v -0.5 1.3 -0.6
v -0.3 1.3 -0.6
v 0.1 1.3 -0.6
v 0.3 1.3 -0.6
v -0.3 2.1 2
v 0.1 2.1 2
v -0.3 2.1 1.7
v 0.1 2.1 1.7
v -0.3 2.1 1.6
v 0.1 2.1 1.6
v -0.3 2.1 0.6
v 0.1 2.1 0.6
v -0.3 2.1 -0.6
v 0.1 2.1 -0.6
v -0.3 2.1 -1.6
v 0.1 2.1 -1.6
v -0.3 2.1 -1.7
v 0.1 2.1 -1.7
v -0.3 2.1 -2
v 0.1 2.1 -2
v -0.7 2.9 0.6
v 0.3 2.9 0.6
v -0.3 2.9 0.2
v 0.1 2.9 0.2
v 0.2 2.9 0.2
v 0.3 2.9 0.2
v -0.3 2.9 -0.2
v 0.1 2.9 -0.2
v 0.2 2.9 -0.2
v 0.3 2.9 -0.2
v -0.7 2.9 -0.6
v 0.3 2.9 -0.6
v -0.1 3.3 0.8
v 0.1 3.3 0.8
v -0.1 3.3 0.6
v 0.1 3.3 0.6
v -0.1 3.3 -0.6
v 0.1 3.3 -0.6
v -0.1 3.3 -0.8
v 0.1 3.3 -0.8
v 0.3 3.4 0.0999999
v 0.4 3.4 0.0999999
v 0.3 3.4 -0.1
v 0.4 3.4 -0.1
v 0.1 0.2 0.6
v 0.5 0.2 0.6
v 0.1 0.2 0.2
v 0.5 0.2 0.2
v 0.1 0.2 -0.2
v 0.5 0.2 -0.2
v 0.1 0.2 -0.6
v 0.5 0.2 -0.6
v -0.3 2.5 2
v 0.1 2.5 2
v -0.3 2.5 1.7
v 0.1 2.5 1.7
v -0.3 2.5 1.6
v 0.1 2.5 1.6
v -0.3 2.5 0.6
v 0.1 2.5 0.6
v -0.3 2.5 -0.6
v 0.1 2.5 -0.6
v -0.3 2.5 -1.6
v 0.1 2.5 -1.6
v -0.3 2.5 -1.7
v 0.1 2.5 -1.7
v -0.3 2.5 -2
v 0.1 2.5 -2
v -0.5 2.7 0.6
v 0.3 2.7 0.6
v -0.3 2.7 0.2
v 0.1 2.7 0.2
v 0.2 2.7 0.2
v 0.3 2.7 0.2
v 0.2 2.7 -0.1
v 0.3 2.7 -0.1
v -0.3 2.7 -0.2
v 0.1 2.7 -0.2
v -0.5 2.7 -0.6
v 0.3 2.7 -0.6
v 0.3 3.5 0.0999999
v 0.4 3.5 0.0999999
v 0.3 3.5 -0.1
v 0.4 3.5 -0.1
v -0.1 3.7 0.8
v 0.1 3.7 0.8
v -0.1 3.7 0.6
v 0.1 3.7 0.6
v -0.1 3.7 -0.6
v 0.1 3.7 -0.6
v -0.1 3.7 -0.8
v 0.1 3.7 -0.8
v -0.7 4.1 0.6
v 0.3 4.1 0.6
v -0.7 4.1 -0.6
v 0.3 4.1 -0.6

# faces
f 3/4/1 2/4/1 1/4/1
f 4/4/1 2/4/1 3/4/1
f 7/5/1 6/5/1 5/5/1
f 8/5/1 6/5/1 7/5/1
f 13/6/1 10/6/1 9/6/1
f 14/6/1 10/6/1 13/6/1
f 15/6/1 12/6/1 11/6/1
f 16/6/1 12/6/1 15/6/1
f 17/8/1 14/8/1 13/8/1
f 18/8/1 14/8/1 17/8/1
f 19/8/1 16/8/1 15/8/1
f 20/8/1 16/8/1 19/8/1
f 21/5/1 18/5/1 17/5/1
f 22/5/1 18/5/1 21/5/1
f 23/5/1 20/5/1 19/5/1
f 24/5/1 20/5/1 23/5/1
f 33/4/1 26/4/1 25/4/1
f 34/7/1 27/7/1 26/7/1
f 34/4/1 26/4/1 33/4/1
f 35/5/1 28/5/1 27/5/1
f 35/7/1 27/7/1 34/7/1
f 36/5/1 28/5/1 35/5/1
f 37/5/1 30/5/1 29/5/1
f 38/7/1 31/7/1 30/7/1
f 38/5/1 30/5/1 37/5/1
f 39/4/1 32/4/1 31/4/1
f 39/7/1 31/7/1 38/7/1
f 40/4/1 32/4/1 39/4/1
f 43/4/1 42/4/1 41/4/1
f 44/4/1 42/4/1 43/4/1
f 49/4/1 46/4/1 45/4/1
f 50/4/1 46/4/1 49/4/1
f 51/4/1 48/4/1 47/4/1
f 52/4/1 48/4/1 51/4/1
f 53/8/2 54/8/2 57/8/2
f 57/8/2 54/8/2 58/8/2
f 55/8/2 56/8/2 59/8/2
f 59/8/2 56/8/2 60/8/2
f 57/5/2 58/5/2 61/5/2
f 61/5/2 58/5/2 62/5/2
f 59/5/2 60/5/2 63/5/2
f 63/5/2 60/5/2 64/5/2
f 65/4/2 66/4/2 73/4/2
f 66/7/2 67/7/2 74/7/2
f 73/4/2 66/4/2 74/4/2
f 67/5/2 68/5/2 75/5/2
f 74/7/2 67/7/2 75/7/2
f 75/5/2 68/5/2 76/5/2
f 69/5/2 70/5/2 77/5/2
f 70/7/2 71/7/2 78/7/2
f 77/5/2 70/5/2 78/5/2
f 71/4/2 72/4/2 79/4/2
f 78/7/2 71/7/2 79/7/2
f 79/4/2 72/4/2 80/4/2
f 81/4/2 82/4/2 83/4/2
f 83/4/2 82/4/2 84/4/2
f 85/4/2 86/4/2 89/4/2
f 87/4/2 88/4/2 90/4/2
f 85/4/2 89/4/2 91/4/2
f 91/4/2 89/4/2 92/4/2
f 90/4/2 88/4/2 93/4/2
f 93/4/2 88/4/2 94/4/2
f 95/5/2 96/5/2 99/5/2
f 96/8/2 97/8/2 100/8/2
f 99/5/2 96/5/2 100/5/2
f 95/5/2 99/5/2 101/5/2
f 99/8/2 100/8/2 102/8/2
f 101/5/2 99/5/2 102/5/2
f 97/5/2 98/5/2 103/5/2
f 102/8/2 100/8/2 103/8/2
f 100/8/2 97/8/2 103/8/2
f 103/5/2 98/5/2 104/5/2
f 105/4/2 106/4/2 109/4/2
f 106/3/2 107/3/2 110/3/2
f 109/4/2 106/4/2 110/4/2
f 107/4/2 108/4/2 111/4/2
f 110/3/2 107/3/2 111/3/2
f 111/4/2 108/4/2 112/4/2
f 109/3/2 110/3/2 113/3/2
f 110/3/2 111/3/2 113/3/2
f 111/3/2 112/3/2 113/3/2
f 113/3/2 112/3/2 114/3/2
f 105/4/2 109/4/2 115/4/2
f 109/3/2 113/3/2 115/3/2
f 113/4/2 114/4/2 116/4/2
f 115/3/2 113/3/2 116/3/2
f 114/3/2 112/3/2 117/3/2
f 116/4/2 114/4/2 117/4/2
f 112/4/2 108/4/2 118/4/2
f 117/3/2 112/3/2 118/3/2
f 116/3/2 117/3/2 119/3/2
f 115/4/2 116/4/2 119/4/2
f 117/4/2 118/4/2 120/4/2
f 119/3/2 117/3/2 120/3/2
f 115/4/2 119/4/2 121/4/2
f 105/4/2 115/4/2 121/4/2
f 119/4/2 120/4/2 121/4/2
f 121/4/2 120/4/2 122/4/2
f 122/4/2 120/4/2 123/4/2
f 118/4/2 108/4/2 124/4/2
f 123/4/2 120/4/2 124/4/2
f 120/4/2 118/4/2 124/4/2
f 121/2/2 122/2/2 125/2/2
f 125/2/2 122/2/2 126/2/2
f 126/2/2 122/2/2 127/2/2
f 127/2/2 122/2/2 128/2/2
f 123/2/2 124/2/2 129/2/2
f 129/2/2 124/2/2 130/2/2
f 130/2/2 124/2/2 131/2/2
f 131/2/2 124/2/2 132/2/2
f 105/4/2 121/4/2 133/4/2
f 121/2/2 125/2/2 134/2/2
f 133/4/2 121/4/2 134/4/2
f 125/8/2 126/8/2 135/8/2
f 134/2/2 125/2/2 135/2/2
f 126/9/2 127/9/2 136/9/2
f 135/8/2 126/8/2 136/8/2
f 127/8/2 128/8/2 137/8/2
f 136/9/2 127/9/2 137/9/2
f 128/2/2 129/2/2 138/2/2
f 137/8/2 128/8/2 138/8/2
f 129/8/2 130/8/2 139/8/2
f 138/2/2 129/2/2 139/2/2
f 130/9/2 131/9/2 140/9/2
f 139/8/2 130/8/2 140/8/2
f 131/8/2 132/8/2 141/8/2
f 140/9/2 131/9/2 141/9/2
f 132/2/2 124/2/2 142/2/2
f 141/8/2 132/8/2 142/8/2
f 124/4/2 108/4/2 143/4/2
f 142/2/2 124/2/2 143/2/2
f 143/4/2 108/4/2 144/4/2
f 141/2/2 142/2/2 145/2/2
f 135/2/2 136/2/2 145/2/2
f 143/2/2 144/2/2 145/2/2
f 142/2/2 143/2/2 145/2/2
f 139/2/2 140/2/2 145/2/2
f 138/2/2 139/2/2 145/2/2
f 137/2/2 138/2/2 145/2/2
f 136/2/2 137/2/2 145/2/2
f 140/2/2 141/2/2 145/2/2
f 134/2/2 135/2/2 145/2/2
f 133/2/2 134/2/2 145/2/2
f 145/2/2 144/2/2 146/2/2
f 145/4/2 146/4/2 147/4/2
f 147/4/2 146/4/2 148/4/2
f 149/4/2 150/4/2 151/4/2
f 151/4/2 150/4/2 152/4/2
f 153/6/2 154/6/2 157/6/2
f 157/6/2 154/6/2 158/6/2
f 155/6/2 156/6/2 159/6/2
f 159/6/2 156/6/2 160/6/2
f 163/4/3 162/4/3 161/4/3
f 164/4/3 162/4/3 163/4/3
f 167/4/3 166/4/3 165/4/3
f 168/4/3 166/4/3 167/4/3
f 176/5/3 172/5/3 171/5/3
f 177/5/3 172/5/3 176/5/3
f 178/5/3 172/5/3 177/5/3
f 179/4/3 170/4/3 169/4/3
f 180/4/3 170/4/3 179/4/3
f 181/8/3 175/8/3 174/8/3
f 181/6/3 174/6/3 173/6/3
f 182/5/3 176/5/3 175/5/3
f 182/8/3 175/8/3 181/8/3
f 182/5/3 177/5/3 176/5/3
f 183/5/3 177/5/3 182/5/3
f 184/5/3 177/5/3 183/5/3
f 185/5/3 172/5/3 178/5/3
f 186/4/3 179/4/3 169/4/3
f 188/4/3 170/4/3 180/4/3
f 189/5/3 184/5/3 183/5/3
f 189/5/3 185/5/3 184/5/3
f 190/5/3 172/5/3 185/5/3
f 190/5/3 185/5/3 189/5/3
f 191/4/3 187/4/3 186/4/3
f 191/4/3 186/4/3 169/4/3
f 192/2/3 188/2/3 187/2/3
f 192/4/3 187/4/3 191/4/3
f 193/4/3 170/4/3 188/4/3
f 193/2/3 188/2/3 192/2/3
f 194/4/3 170/4/3 193/4/3
f 195/6/3 181/6/3 173/6/3
f 196/6/3 181/6/3 195/6/3
f 199/4/3 198/4/3 197/4/3
f 200/4/3 198/4/3 199/4/3
f 203/4/3 202/4/3 201/4/3
f 204/4/3 202/4/3 203/4/3
f 209/6/3 206/6/3 205/6/3
f 209/8/3 207/8/3 206/8/3
f 210/5/3 208/5/3 207/5/3
f 210/8/3 207/8/3 209/8/3
f 211/5/3 208/5/3 210/5/3
f 212/6/3 209/6/3 205/6/3
f 213/6/3 209/6/3 212/6/3
f 214/6/4 215/6/4 218/6/4
f 215/8/4 216/8/4 218/8/4
f 216/5/4 217/5/4 219/5/4
f 218/8/4 216/8/4 219/8/4
f 219/5/4 217/5/4 220/5/4
f 214/6/4 218/6/4 221/6/4
f 221/6/4 218/6/4 222/6/4
f 223/4/4 224/4/4 225/4/4
f 225/4/4 224/4/4 226/4/4
f 227/4/4 228/4/4 229/4/4
f 229/4/4 228/4/4 230/4/4
f 233/5/4 234/5/4 238/5/4
f 238/5/4 234/5/4 239/5/4
f 239/5/4 234/5/4 240/5/4
f 231/4/4 232/4/4 241/4/4
f 241/4/4 232/4/4 242/4/4
f 236/8/4 237/8/4 243/8/4
f 235/6/4 236/6/4 243/6/4
f 237/5/4 238/5/4 244/5/4
f 243/8/4 237/8/4 244/8/4
f 238/5/4 239/5/4 244/5/4
f 244/5/4 239/5/4 245/5/4
f 245/5/4 239/5/4 246/5/4
f 240/5/4 234/5/4 247/5/4
f 231/4/4 241/4/4 248/4/4
f 242/4/4 232/4/4 250/4/4
f 245/5/4 246/5/4 251/5/4
f 246/5/4 247/5/4 251/5/4
f 247/5/4 234/5/4 252/5/4
f 251/5/4 247/5/4 252/5/4
f 248/4/4 249/4/4 253/4/4
f 231/4/4 248/4/4 253/4/4
f 249/2/4 250/2/4 254/2/4
f 253/4/4 249/4/4 254/4/4
f 250/4/4 232/4/4 255/4/4
f 254/2/4 250/2/4 255/2/4
f 255/4/4 232/4/4 256/4/4
f 235/6/4 243/6/4 257/6/4
f 257/6/4 243/6/4 258/6/4
f 259/4/4 260/4/4 261/4/4
f 261/4/4 260/4/4 262/4/4
f 263/4/4 264/4/4 265/4/4
f 265/4/4 264/4/4 266/4/4
f 269/6/5 268/6/5 267/6/5
f 270/6/5 268/6/5 269/6/5
f 273/6/5 272/6/5 271/6/5
f 274/6/5 272/6/5 273/6/5
f 279/5/5 276/5/5 275/5/5
f 280/5/5 278/5/5 277/5/5
f 281/5/5 278/5/5 280/5/5
f 281/5/5 280/5/5 279/5/5
f 282/5/5 278/5/5 281/5/5
f 283/5/5 281/5/5 279/5/5
f 283/8/5 282/8/5 281/8/5
f 284/8/5 282/8/5 283/8/5
f 285/5/5 279/5/5 275/5/5
f 285/5/5 283/5/5 279/5/5
f 285/5/5 284/5/5 283/5/5
f 286/5/5 284/5/5 285/5/5
f 287/5/5 285/5/5 275/5/5
f 288/5/5 285/5/5 287/5/5
f 289/5/5 284/5/5 286/5/5
f 290/5/5 284/5/5 289/5/5
f 293/4/5 292/4/5 291/4/5
f 294/4/5 292/4/5 293/4/5
f 295/7/5 294/7/5 293/7/5
f 296/7/5 294/7/5 295/7/5
f 297/5/5 296/5/5 295/5/5
f 298/5/5 296/5/5 297/5/5
f 301/5/5 300/5/5 299/5/5
f 302/5/5 300/5/5 301/5/5
f 303/7/5 302/7/5 301/7/5
f 304/7/5 302/7/5 303/7/5
f 305/4/5 304/4/5 303/4/5
f 306/4/5 304/4/5 305/4/5
f 309/4/5 308/4/5 307/4/5
f 310/4/5 308/4/5 309/4/5
f 311/4/5 308/4/5 310/4/5
f 312/4/5 308/4/5 311/4/5
f 313/4/5 309/4/5 307/4/5
f 314/4/5 311/4/5 310/4/5
f 315/3/5 312/3/5 311/3/5
f 315/4/5 311/4/5 314/4/5
f 316/3/5 312/3/5 315/3/5
f 317/4/5 314/4/5 313/4/5
f 317/4/5 313/4/5 307/4/5
f 317/4/5 316/4/5 315/4/5
f 317/4/5 315/4/5 314/4/5
f 318/4/5 316/4/5 317/4/5
f 321/4/5 320/4/5 319/4/5
f 322/4/5 320/4/5 321/4/5
f 325/4/5 324/4/5 323/4/5
f 326/4/5 324/4/5 325/4/5
f 329/4/5 328/4/5 327/4/5
f 330/4/5 328/4/5 329/4/5
f 331/6/6 332/6/6 333/6/6
f 333/6/6 332/6/6 334/6/6
f 335/6/6 336/6/6 337/6/6
f 337/6/6 336/6/6 338/6/6
f 339/4/6 340/4/6 341/4/6
f 341/4/6 340/4/6 342/4/6
f 341/7/6 342/7/6 343/7/6
f 343/7/6 342/7/6 344/7/6
f 343/5/6 344/5/6 345/5/6
f 345/5/6 344/5/6 346/5/6
f 347/5/6 348/5/6 349/5/6
f 349/5/6 348/5/6 350/5/6
f 349/7/6 350/7/6 351/7/6
f 351/7/6 350/7/6 352/7/6
f 351/4/6 352/4/6 353/4/6
f 353/4/6 352/4/6 354/4/6
f 355/5/6 356/5/6 357/5/6
f 357/5/6 356/5/6 358/5/6
f 358/5/6 356/5/6 359/5/6
f 359/5/6 356/5/6 360/5/6
f 358/5/6 359/5/6 361/5/6
f 359/8/6 360/8/6 361/8/6
f 361/8/6 360/8/6 362/8/6
f 355/5/6 357/5/6 363/5/6
f 358/5/6 361/5/6 364/5/6
f 361/5/6 362/5/6 364/5/6
f 355/5/6 363/5/6 365/5/6
f 363/5/6 364/5/6 365/5/6
f 364/5/6 362/5/6 366/5/6
f 365/5/6 364/5/6 366/5/6
f 367/4/6 368/4/6 369/4/6
f 369/4/6 368/4/6 370/4/6
f 371/4/6 372/4/6 373/4/6
f 373/4/6 372/4/6 374/4/6
f 375/4/6 376/4/6 377/4/6
f 377/4/6 376/4/6 378/4/6
f 379/4/6 380/4/6 381/4/6
f 381/4/6 380/4/6 382/4/6
