# MagicaVoxel @ Ephtracy

# group
o 

# material
mtllib main.mtl
usemtl palette

# normals
vn -1 0 0
vn 1 0 0
vn 0 0 1
vn 0 0 -1
vn 0 -1 0
vn 0 1 0

# texcoords
vt 0.939453 0.5
vt 0.970703 0.5
vt 0.974609 0.5
vt 0.978516 0.5
vt 0.982422 0.5
vt 0.986328 0.5
vt 0.990234 0.5
vt 0.994141 0.5

# verts
v -1.2 0.2 2.8
v -1.2 0.2 2.6
v -1.2 0.2 2.5
v -1.2 0.2 2.3
v -1.2 0.2 2.2
v -1.2 0.2 2
v -1.2 0.4 2.8
v -1.2 0.4 2.6
v -1.2 0.4 2.5
v -1.2 0.4 2.3
v -1.2 0.4 2.2
v -1.2 0.4 2
v -1 0 3
v -1 0 -2
v -1 0.2 2.8
v -1 0.2 2.6
v -1 0.2 2.5
v -1 0.2 2.3
v -1 0.2 2.2
v -1 0.2 2
v -1 0.3 1.7
v -1 0.3 -1.7
v -1 0.4 2.8
v -1 0.4 2.6
v -1 0.4 2.5
v -1 0.4 2.3
v -1 0.4 2.2
v -1 0.4 2
v -1 0.6 2.8
v -1 0.6 1.9
v -1 0.8 2.8
v -1 0.8 1.9
v -1 2.3 2.7
v -1 2.3 1.9
v -1 2.4 2.7
v -1 2.4 1.9
v -1 2.5 2.7
v -1 2.5 1.9
v -1 2.6 2.7
v -1 2.6 1.9
v -1 2.7 1.7
v -1 2.7 -1.7
v -1 3 3
v -1 3 -2
v -0.9 2.3 2.7
v -0.9 2.3 1.9
v -0.9 2.4 2.7
v -0.9 2.4 1.9
v -0.9 2.5 2.7
v -0.9 2.5 1.9
v -0.9 2.6 2.7
v -0.9 2.6 1.9
v -0.8 0.6 2.8
v -0.8 0.6 1.9
v -0.8 0.8 2.8
v -0.8 0.8 1.9
v -0.7 0.3 1.7
v -0.7 0.3 -1.7
v -0.7 0.8 0.6
v -0.7 0.8 -0.6
v -0.7 1 0.6
v -0.7 1 -0.6
v -0.7 1.4 0.0999999
v -0.7 1.4 -0.1
v -0.7 1.5 0.0999999
v -0.7 1.5 -0.1
v -0.7 1.8 1.3
v -0.7 1.8 1.2
v -0.7 1.8 0.8
v -0.7 1.8 0.7
v -0.7 1.8 -0.7
v -0.7 1.8 -0.8
v -0.7 1.8 -1.2
v -0.7 1.8 -1.3
v -0.7 1.9 1.3
v -0.7 1.9 1.2
v -0.7 1.9 1.1
v -0.7 1.9 0.9
v -0.7 1.9 0.8
v -0.7 1.9 0.7
v -0.7 1.9 -0.7
v -0.7 1.9 -0.8
v -0.7 1.9 -0.9
v -0.7 1.9 -1.1
v -0.7 1.9 -1.2
v -0.7 1.9 -1.3
v -0.7 2 1.2
v -0.7 2 1.1
v -0.7 2 0.9
v -0.7 2 0.8
v -0.7 2 -0.8
v -0.7 2 -0.9
v -0.7 2 -1.1
v -0.7 2 -1.2
v -0.7 2.1 1.1
v -0.7 2.1 0.9
v -0.7 2.1 -0.9
v -0.7 2.1 -1.1
v -0.7 2.7 1.7
v -0.7 2.7 -1.7
v 1 0 3
v 1 0 -2
v 1 0.3 1.7
v 1 0.3 -1.7
v 1 1.1 0.7
v 1 1.1 -0.7
v 1 1.3 0.7
v 1 1.3 -0.7
v 1 1.8 1.2
v 1 1.8 0.8
v 1 1.8 -0.8
v 1 1.8 -1.2
v 1 2.2 1.2
v 1 2.2 0.8
v 1 2.2 -0.8
v 1 2.2 -1.2
v 1 2.7 1.7
v 1 2.7 -1.7
v 1 3 3
v 1 3 -2
v -1 0 3
v -1 3 3
v 1 0 3
v 1 3 3
v -1.2 0.2 2.8
v -1.2 0.4 2.8
v -1 0.2 2.8
v -1 0.4 2.8
v -1.2 0.2 2.5
v -1.2 0.4 2.5
v -1 0.2 2.5
v -1 0.4 2.5
v -1.2 0.2 2.2
v -1.2 0.4 2.2
v -1 0.2 2.2
v -1 0.4 2.2
v -1 0.6 1.9
v -1 0.8 1.9
v -1 2.3 1.9
v -1 2.4 1.9
v -1 2.5 1.9
v -1 2.6 1.9
v -0.9 0.6 1.9
v -0.9 0.8 1.9
v -0.9 2.3 1.9
v -0.9 2.4 1.9
v -0.9 2.5 1.9
v -0.9 2.6 1.9
v -0.8 0.6 1.9
v -0.8 0.8 1.9
v -1 0.3 -1.7
v -1 2.7 -1.7
v -0.8 0.3 -1.7
v -0.8 2.7 -1.7
v -0.7 0.3 -1.7
v -0.7 2.7 -1.7
v -1 0.6 2.8
v -1 0.8 2.8
v -0.9 0.6 2.8
v -0.9 0.8 2.8
v -0.8 0.6 2.8
v -0.8 0.8 2.8
v -1 2.3 2.7
v -1 2.4 2.7
v -1 2.5 2.7
v -1 2.6 2.7
v -0.9 2.3 2.7
v -0.9 2.4 2.7
v -0.9 2.5 2.7
v -0.9 2.6 2.7
v -1.2 0.2 2.6
v -1.2 0.4 2.6
v -1 0.2 2.6
v -1 0.4 2.6
v -1.2 0.2 2.3
v -1.2 0.4 2.3
v -1 0.2 2.3
v -1 0.4 2.3
v -1.2 0.2 2
v -1.2 0.4 2
v -1 0.2 2
v -1 0.4 2
v -1 0.3 1.7
v -1 2.7 1.7
v -0.8 0.3 1.7
v -0.8 2.7 1.7
v -0.7 0.3 1.7
v -0.7 2.7 1.7
v -1 0 -2
v -1 3 -2
v 1 0 -2
v 1 3 -2
v -1 0 3
v 1 0 3
v -1 0 -2
v 1 0 -2
v -1.2 0.2 2.8
v -1 0.2 2.8
v -1.2 0.2 2.6
v -1 0.2 2.6
v -1.2 0.2 2.5
v -1 0.2 2.5
v -1.2 0.2 2.3
v -1 0.2 2.3
v -1.2 0.2 2.2
v -1 0.2 2.2
v -1.2 0.2 2
v -1 0.2 2
v -1 0.8 2.8
v -0.9 0.8 2.8
v -0.8 0.8 2.8
v -1 0.8 1.9
v -0.9 0.8 1.9
v -0.8 0.8 1.9
v -1 2.4 2.7
v -0.9 2.4 2.7
v -1 2.4 1.9
v -0.9 2.4 1.9
v -1 2.6 2.7
v -0.9 2.6 2.7
v -1 2.6 1.9
v -0.9 2.6 1.9
v -1 2.7 1.7
v -0.8 2.7 1.7
v -0.7 2.7 1.7
v -1 2.7 -1.7
v -0.8 2.7 -1.7
v -0.7 2.7 -1.7
v -1 0.3 1.7
v -0.8 0.3 1.7
v -0.7 0.3 1.7
v -1 0.3 -1.7
v -0.8 0.3 -1.7
v -0.7 0.3 -1.7
v -1.2 0.4 2.8
v -1 0.4 2.8
v -1.2 0.4 2.6
v -1 0.4 2.6
v -1.2 0.4 2.5
v -1 0.4 2.5
v -1.2 0.4 2.3
v -1 0.4 2.3
v -1.2 0.4 2.2
v -1 0.4 2.2
v -1.2 0.4 2
v -1 0.4 2
v -1 0.6 2.8
v -0.9 0.6 2.8
v -0.8 0.6 2.8
v -1 0.6 1.9
v -0.9 0.6 1.9
v -0.8 0.6 1.9
v -1 2.3 2.7
v -0.9 2.3 2.7
v -1 2.3 1.9
v -0.9 2.3 1.9
v -1 2.5 2.7
v -0.9 2.5 2.7
v -1 2.5 1.9
v -0.9 2.5 1.9
v -1 3 3
v 1 3 3
v -1 3 -2
v 1 3 -2

# faces
f 7/7/1 2/7/1 1/7/1
f 8/7/1 2/7/1 7/7/1
f 9/7/1 4/7/1 3/7/1
f 10/7/1 4/7/1 9/7/1
f 11/8/1 6/8/1 5/8/1
f 12/8/1 6/8/1 11/8/1
f 15/2/1 14/2/1 13/2/1
f 16/2/1 14/2/1 15/2/1
f 17/2/1 14/2/1 16/2/1
f 18/2/1 14/2/1 17/2/1
f 19/2/1 14/2/1 18/2/1
f 20/2/1 14/2/1 19/2/1
f 21/2/1 14/2/1 20/2/1
f 22/2/1 14/2/1 21/2/1
f 23/2/1 15/2/1 13/2/1
f 24/2/1 17/2/1 16/2/1
f 25/2/1 17/2/1 24/2/1
f 26/2/1 19/2/1 18/2/1
f 27/2/1 19/2/1 26/2/1
f 28/2/1 21/2/1 20/2/1
f 29/2/1 25/2/1 24/2/1
f 29/2/1 28/2/1 27/2/1
f 29/2/1 23/2/1 13/2/1
f 29/2/1 27/2/1 26/2/1
f 29/2/1 26/2/1 25/2/1
f 29/2/1 24/2/1 23/2/1
f 30/2/1 21/2/1 28/2/1
f 30/2/1 28/2/1 29/2/1
f 31/2/1 29/2/1 13/2/1
f 32/2/1 21/2/1 30/2/1
f 33/2/1 32/2/1 31/2/1
f 34/2/1 21/2/1 32/2/1
f 34/2/1 32/2/1 33/2/1
f 35/2/1 33/2/1 31/2/1
f 36/2/1 21/2/1 34/2/1
f 37/2/1 35/2/1 31/2/1
f 37/2/1 36/2/1 35/2/1
f 38/2/1 21/2/1 36/2/1
f 38/2/1 36/2/1 37/2/1
f 39/2/1 37/2/1 31/2/1
f 40/2/1 21/2/1 38/2/1
f 41/2/1 21/2/1 40/2/1
f 41/2/1 40/2/1 39/2/1
f 42/2/1 14/2/1 22/2/1
f 43/2/1 41/2/1 39/2/1
f 43/2/1 42/2/1 41/2/1
f 43/2/1 31/2/1 13/2/1
f 43/2/1 39/2/1 31/2/1
f 44/2/1 14/2/1 42/2/1
f 44/2/1 42/2/1 43/2/1
f 47/1/1 46/1/1 45/1/1
f 48/1/1 46/1/1 47/1/1
f 51/1/1 50/1/1 49/1/1
f 52/1/1 50/1/1 51/1/1
f 55/1/1 54/1/1 53/1/1
f 56/1/1 54/1/1 55/1/1
f 59/4/1 58/4/1 57/4/1
f 60/4/1 58/4/1 59/4/1
f 61/4/1 59/4/1 57/4/1
f 61/5/1 60/5/1 59/5/1
f 62/4/1 58/4/1 60/4/1
f 62/5/1 60/5/1 61/5/1
f 63/4/1 62/4/1 61/4/1
f 64/4/1 62/4/1 63/4/1
f 65/4/1 63/4/1 61/4/1
f 65/5/1 64/5/1 63/5/1
f 66/4/1 62/4/1 64/4/1
f 66/5/1 64/5/1 65/5/1
f 67/4/1 61/4/1 57/4/1
f 67/4/1 65/4/1 61/4/1
f 67/4/1 66/4/1 65/4/1
f 68/4/1 66/4/1 67/4/1
f 69/4/1 66/4/1 68/4/1
f 70/4/1 66/4/1 69/4/1
f 71/4/1 62/4/1 66/4/1
f 71/4/1 66/4/1 70/4/1
f 71/4/1 58/4/1 62/4/1
f 72/4/1 58/4/1 71/4/1
f 73/4/1 58/4/1 72/4/1
f 74/4/1 58/4/1 73/4/1
f 75/4/1 67/4/1 57/4/1
f 75/5/1 68/5/1 67/5/1
f 76/4/1 69/4/1 68/4/1
f 76/5/1 68/5/1 75/5/1
f 77/4/1 69/4/1 76/4/1
f 78/4/1 69/4/1 77/4/1
f 79/5/1 70/5/1 69/5/1
f 79/4/1 69/4/1 78/4/1
f 80/4/1 71/4/1 70/4/1
f 80/5/1 70/5/1 79/5/1
f 81/5/1 72/5/1 71/5/1
f 81/4/1 71/4/1 80/4/1
f 82/4/1 73/4/1 72/4/1
f 82/5/1 72/5/1 81/5/1
f 83/4/1 73/4/1 82/4/1
f 84/4/1 73/4/1 83/4/1
f 85/5/1 74/5/1 73/5/1
f 85/4/1 73/4/1 84/4/1
f 86/4/1 58/4/1 74/4/1
f 86/5/1 74/5/1 85/5/1
f 87/4/1 76/4/1 75/4/1
f 87/5/1 77/5/1 76/5/1
f 88/4/1 78/4/1 77/4/1
f 88/5/1 77/5/1 87/5/1
f 89/5/1 79/5/1 78/5/1
f 89/4/1 78/4/1 88/4/1
f 90/4/1 80/4/1 79/4/1
f 90/5/1 79/5/1 89/5/1
f 90/4/1 81/4/1 80/4/1
f 90/4/1 82/4/1 81/4/1
f 91/5/1 83/5/1 82/5/1
f 91/4/1 82/4/1 90/4/1
f 92/4/1 84/4/1 83/4/1
f 92/5/1 83/5/1 91/5/1
f 93/5/1 85/5/1 84/5/1
f 93/4/1 84/4/1 92/4/1
f 94/4/1 86/4/1 85/4/1
f 94/5/1 85/5/1 93/5/1
f 95/4/1 88/4/1 87/4/1
f 95/5/1 89/5/1 88/5/1
f 96/4/1 92/4/1 91/4/1
f 96/5/1 89/5/1 95/5/1
f 96/4/1 91/4/1 90/4/1
f 96/4/1 90/4/1 89/4/1
f 97/5/1 93/5/1 92/5/1
f 97/4/1 92/4/1 96/4/1
f 98/4/1 94/4/1 93/4/1
f 98/5/1 93/5/1 97/5/1
f 99/4/1 87/4/1 75/4/1
f 99/4/1 75/4/1 57/4/1
f 99/4/1 98/4/1 97/4/1
f 99/4/1 95/4/1 87/4/1
f 99/4/1 97/4/1 96/4/1
f 99/4/1 96/4/1 95/4/1
f 100/4/1 94/4/1 98/4/1
f 100/4/1 98/4/1 99/4/1
f 100/4/1 58/4/1 86/4/1
f 100/4/1 86/4/1 94/4/1
f 101/2/2 102/2/2 103/2/2
f 103/2/2 102/2/2 104/2/2
f 103/4/2 104/4/2 105/4/2
f 105/4/2 104/4/2 106/4/2
f 103/4/2 105/4/2 107/4/2
f 105/2/2 106/2/2 107/2/2
f 106/4/2 104/4/2 108/4/2
f 107/2/2 106/2/2 108/2/2
f 103/4/2 107/4/2 109/4/2
f 107/4/2 108/4/2 109/4/2
f 109/4/2 108/4/2 110/4/2
f 108/4/2 104/4/2 111/4/2
f 110/4/2 108/4/2 111/4/2
f 111/4/2 104/4/2 112/4/2
f 109/2/2 110/2/2 113/2/2
f 103/4/2 109/4/2 113/4/2
f 110/4/2 111/4/2 114/4/2
f 113/2/2 110/2/2 114/2/2
f 111/2/2 112/2/2 115/2/2
f 114/4/2 111/4/2 115/4/2
f 112/4/2 104/4/2 116/4/2
f 115/2/2 112/2/2 116/2/2
f 101/2/2 103/2/2 117/2/2
f 114/4/2 115/4/2 117/4/2
f 115/4/2 116/4/2 117/4/2
f 103/4/2 113/4/2 117/4/2
f 113/4/2 114/4/2 117/4/2
f 116/4/2 104/4/2 118/4/2
f 117/4/2 116/4/2 118/4/2
f 104/2/2 102/2/2 118/2/2
f 101/2/2 117/2/2 119/2/2
f 117/2/2 118/2/2 119/2/2
f 118/2/2 102/2/2 120/2/2
f 119/2/2 118/2/2 120/2/2
f 123/2/3 122/2/3 121/2/3
f 124/2/3 122/2/3 123/2/3
f 127/7/3 126/7/3 125/7/3
f 128/7/3 126/7/3 127/7/3
f 131/7/3 130/7/3 129/7/3
f 132/7/3 130/7/3 131/7/3
f 135/8/3 134/8/3 133/8/3
f 136/8/3 134/8/3 135/8/3
f 143/2/3 138/2/3 137/2/3
f 144/2/3 138/2/3 143/2/3
f 145/2/3 140/2/3 139/2/3
f 146/2/3 140/2/3 145/2/3
f 147/2/3 142/2/3 141/2/3
f 148/2/3 142/2/3 147/2/3
f 149/1/3 144/1/3 143/1/3
f 150/1/3 144/1/3 149/1/3
f 153/2/3 152/2/3 151/2/3
f 154/2/3 152/2/3 153/2/3
f 155/3/3 154/3/3 153/3/3
f 156/3/3 154/3/3 155/3/3
f 157/2/4 158/2/4 159/2/4
f 159/2/4 158/2/4 160/2/4
f 159/1/4 160/1/4 161/1/4
f 161/1/4 160/1/4 162/1/4
f 163/2/4 164/2/4 167/2/4
f 167/2/4 164/2/4 168/2/4
f 165/2/4 166/2/4 169/2/4
f 169/2/4 166/2/4 170/2/4
f 171/7/4 172/7/4 173/7/4
f 173/7/4 172/7/4 174/7/4
f 175/7/4 176/7/4 177/7/4
f 177/7/4 176/7/4 178/7/4
f 179/8/4 180/8/4 181/8/4
f 181/8/4 180/8/4 182/8/4
f 183/2/4 184/2/4 185/2/4
f 185/2/4 184/2/4 186/2/4
f 185/3/4 186/3/4 187/3/4
f 187/3/4 186/3/4 188/3/4
f 189/2/4 190/2/4 191/2/4
f 191/2/4 190/2/4 192/2/4
f 195/2/5 194/2/5 193/2/5
f 196/2/5 194/2/5 195/2/5
f 199/7/5 198/7/5 197/7/5
f 200/7/5 198/7/5 199/7/5
f 203/7/5 202/7/5 201/7/5
f 204/7/5 202/7/5 203/7/5
f 207/8/5 206/8/5 205/8/5
f 208/8/5 206/8/5 207/8/5
f 212/2/5 210/2/5 209/2/5
f 213/1/5 211/1/5 210/1/5
f 213/2/5 210/2/5 212/2/5
f 214/1/5 211/1/5 213/1/5
f 217/2/5 216/2/5 215/2/5
f 218/2/5 216/2/5 217/2/5
f 221/2/5 220/2/5 219/2/5
f 222/2/5 220/2/5 221/2/5
f 226/2/5 224/2/5 223/2/5
f 227/3/5 225/3/5 224/3/5
f 227/2/5 224/2/5 226/2/5
f 228/3/5 225/3/5 227/3/5
f 229/2/6 230/2/6 232/2/6
f 230/3/6 231/3/6 233/3/6
f 232/2/6 230/2/6 233/2/6
f 233/3/6 231/3/6 234/3/6
f 235/7/6 236/7/6 237/7/6
f 237/7/6 236/7/6 238/7/6
f 239/7/6 240/7/6 241/7/6
f 241/7/6 240/7/6 242/7/6
f 243/8/6 244/8/6 245/8/6
f 245/8/6 244/8/6 246/8/6
f 247/2/6 248/2/6 250/2/6
f 248/1/6 249/1/6 251/1/6
f 250/2/6 248/2/6 251/2/6
f 251/1/6 249/1/6 252/1/6
f 253/2/6 254/2/6 255/2/6
f 255/2/6 254/2/6 256/2/6
f 257/2/6 258/2/6 259/2/6
f 259/2/6 258/2/6 260/2/6
f 261/2/6 262/2/6 263/2/6
f 263/2/6 262/2/6 264/2/6
