# MagicaVoxel @ Ephtracy

# group
o 

# material
mtllib main.mtl
usemtl palette

# normals
vn -1 0 0
vn 1 0 0
vn 0 0 1
vn 0 0 -1
vn 0 -1 0
vn 0 1 0

# texcoords
vt 0.939453 0.5
vt 0.970703 0.5
vt 0.974609 0.5
vt 0.978516 0.5
vt 0.982422 0.5
vt 0.986328 0.5
vt 0.990234 0.5
vt 0.994141 0.5

# verts
v -0.6 0.6 0.2
v -0.6 0.6 -5.96046e-08
v -0.6 0.8 0.2
v -0.6 0.8 -5.96046e-08
v -0.6 1.2 0.6
v -0.6 1.2 0.2
v -0.6 1.2 -5.96046e-08
v -0.6 1.2 -0.4
v -0.6 2.2 0.6
v -0.6 2.2 -0.4
v -0.4 0.5 0.3
v -0.4 0.5 -0.1
v -0.4 0.6 0.2
v -0.4 0.6 -5.96046e-08
v -0.4 0.8 0.3
v -0.4 0.8 0.2
v -0.4 0.8 -5.96046e-08
v -0.4 0.8 -0.1
v -0.4 1.2 0.3
v -0.4 1.2 0.2
v -0.4 1.2 -5.96046e-08
v -0.4 1.2 -0.1
v -0.3 0 0.4
v -0.3 0 -5.96046e-08
v -0.3 0.2 0.4
v -0.3 0.2 0.2
v -0.3 0.3 0.2
v -0.3 0.3 -5.96046e-08
v -0.3 0.4 0.2
v -0.3 0.4 -5.96046e-08
v -0.3 0.5 0.2
v -0.3 0.5 -5.96046e-08
v -0.0999999 1.7 0.7
v -0.0999999 1.7 0.6
v -0.0999999 1.8 0.7
v -0.0999999 1.8 0.6
v 0.1 0 0.4
v 0.1 0 -5.96046e-08
v 0.1 0.2 0.4
v 0.1 0.2 0.2
v 0.1 0.3 0.2
v 0.1 0.3 -5.96046e-08
v 0.1 0.4 0.2
v 0.1 0.4 -5.96046e-08
v 0.1 0.5 0.2
v 0.1 0.5 -5.96046e-08
v 0.3 2.1 -0.1
v 0.3 2.1 -0.3
v 0.3 2.2 -0.1
v 0.3 2.2 -0.3
v 0.3 2.4 -0.1
v 0.3 2.4 -0.3
v 0.3 2.5 -0.1
v 0.3 2.5 -0.3
v 0.4 2.5 -0.1
v 0.4 2.5 -0.3
v 0.4 2.6 -0.1
v 0.4 2.6 -0.3
v 0.5 2.1 0.5
v 0.5 2.1 -0.1
v 0.5 2.2 0.5
v 0.5 2.2 -0.1
v -0.5 2.1 0.5
v -0.5 2.1 -0.3
v -0.5 2.2 0.5
v -0.5 2.2 -0.3
v -0.0999999 0 0.4
v -0.0999999 0 -5.96046e-08
v -0.0999999 0.2 0.4
v -0.0999999 0.2 0.2
v -0.0999999 0.3 0.2
v -0.0999999 0.3 -5.96046e-08
v -0.0999999 0.4 0.2
v -0.0999999 0.4 -5.96046e-08
v -0.0999999 0.5 0.2
v -0.0999999 0.5 -5.96046e-08
v 0.1 1.7 0.7
v 0.1 1.7 0.6
v 0.1 1.8 0.7
v 0.1 1.8 0.6
v 0.3 0 0.4
v 0.3 0 -5.96046e-08
v 0.3 0.2 0.4
v 0.3 0.2 0.2
v 0.3 0.3 0.2
v 0.3 0.3 -5.96046e-08
v 0.3 0.4 0.2
v 0.3 0.4 -5.96046e-08
v 0.3 0.5 0.2
v 0.3 0.5 -5.96046e-08
v 0.4 0.5 0.3
v 0.4 0.5 -0.1
v 0.4 0.6 0.2
v 0.4 0.6 -5.96046e-08
v 0.4 0.8 0.3
v 0.4 0.8 0.2
v 0.4 0.8 -5.96046e-08
v 0.4 0.8 -0.1
v 0.4 1.2 0.3
v 0.4 1.2 0.2
v 0.4 1.2 -5.96046e-08
v 0.4 1.2 -0.1
v 0.5 2.2 -0.1
v 0.5 2.2 -0.3
v 0.5 2.4 -0.1
v 0.5 2.4 -0.3
v 0.6 0.6 0.2
v 0.6 0.6 -5.96046e-08
v 0.6 0.8 0.2
v 0.6 0.8 -5.96046e-08
v 0.6 1.2 0.6
v 0.6 1.2 0.2
v 0.6 1.2 -5.96046e-08
v 0.6 1.2 -0.4
v 0.6 2.2 0.6
v 0.6 2.2 -0.4
v 0.8 2.4 -0.1
v 0.8 2.4 -0.3
v 0.8 2.6 -0.1
v 0.8 2.6 -0.3
v -0.0999999 1.7 0.7
v -0.0999999 1.8 0.7
v 0.1 1.7 0.7
v 0.1 1.8 0.7
v -0.6 1.2 0.6
v -0.6 2.2 0.6
v -0.5 1.4 0.6
v -0.5 1.5 0.6
v -0.5 1.6 0.6
v -0.4 1.3 0.6
v -0.4 1.4 0.6
v -0.4 1.8 0.6
v -0.4 2.1 0.6
v -0.3 1.8 0.6
v -0.3 2 0.6
v -0.2 1.8 0.6
v -0.2 2 0.6
v -0.0999999 1.4 0.6
v -0.0999999 1.5 0.6
v -0.0999999 1.7 0.6
v -0.0999999 1.8 0.6
v -0.0999999 2.1 0.6
v 5.96046e-08 1.3 0.6
v 5.96046e-08 1.4 0.6
v 0.1 1.7 0.6
v 0.1 1.8 0.6
v 0.1 2.1 0.6
v 0.2 1.3 0.6
v 0.2 1.6 0.6
v 0.2 1.8 0.6
v 0.2 2 0.6
v 0.3 1.8 0.6
v 0.3 2 0.6
v 0.4 1.8 0.6
v 0.4 2.1 0.6
v 0.6 1.2 0.6
v 0.6 2.2 0.6
v -0.3 0 0.4
v -0.3 0.2 0.4
v -0.0999999 0 0.4
v -0.0999999 0.2 0.4
v 0.1 0 0.4
v 0.1 0.2 0.4
v 0.3 0 0.4
v 0.3 0.2 0.4
v -0.4 0.5 0.3
v -0.4 0.8 0.3
v -0.4 1.2 0.3
v 0.4 0.5 0.3
v 0.4 0.8 0.3
v 0.4 1.2 0.3
v -0.6 0.6 0.2
v -0.6 0.8 0.2
v -0.6 1.2 0.2
v -0.4 0.6 0.2
v -0.4 0.8 0.2
v -0.4 1.2 0.2
v -0.3 0.2 0.2
v -0.3 0.3 0.2
v -0.3 0.4 0.2
v -0.3 0.5 0.2
v -0.0999999 0.2 0.2
v -0.0999999 0.3 0.2
v -0.0999999 0.4 0.2
v -0.0999999 0.5 0.2
v 0.1 0.2 0.2
v 0.1 0.3 0.2
v 0.1 0.4 0.2
v 0.1 0.5 0.2
v 0.3 0.2 0.2
v 0.3 0.3 0.2
v 0.3 0.4 0.2
v 0.3 0.5 0.2
v 0.4 0.6 0.2
v 0.4 0.8 0.2
v 0.4 1.2 0.2
v 0.6 0.6 0.2
v 0.6 0.8 0.2
v 0.6 1.2 0.2
v 0.3 2.1 -0.1
v 0.3 2.2 -0.1
v 0.3 2.4 -0.1
v 0.3 2.5 -0.1
v 0.4 2.5 -0.1
v 0.4 2.6 -0.1
v 0.5 2.1 -0.1
v 0.5 2.2 -0.1
v 0.5 2.4 -0.1
v 0.5 2.6 -0.1
v 0.7 2.4 -0.1
v 0.7 2.6 -0.1
v 0.8 2.4 -0.1
v 0.8 2.6 -0.1
v -0.5 2.1 -0.3
v -0.5 2.2 -0.3
v 0.3 2.1 -0.3
v 0.3 2.2 -0.3
v -0.5 2.1 0.5
v -0.5 2.2 0.5
v 0.5 2.1 0.5
v 0.5 2.2 0.5
v -0.6 0.6 -5.96046e-08
v -0.6 0.8 -5.96046e-08
v -0.6 1.2 -5.96046e-08
v -0.4 0.6 -5.96046e-08
v -0.4 0.8 -5.96046e-08
v -0.4 1.2 -5.96046e-08
v -0.3 0 -5.96046e-08
v -0.3 0.3 -5.96046e-08
v -0.3 0.4 -5.96046e-08
v -0.3 0.5 -5.96046e-08
v -0.0999999 0 -5.96046e-08
v -0.0999999 0.3 -5.96046e-08
v -0.0999999 0.4 -5.96046e-08
v -0.0999999 0.5 -5.96046e-08
v 0.1 0 -5.96046e-08
v 0.1 0.3 -5.96046e-08
v 0.1 0.4 -5.96046e-08
v 0.1 0.5 -5.96046e-08
v 0.3 0 -5.96046e-08
v 0.3 0.3 -5.96046e-08
v 0.3 0.4 -5.96046e-08
v 0.3 0.5 -5.96046e-08
v 0.4 0.6 -5.96046e-08
v 0.4 0.8 -5.96046e-08
v 0.4 1.2 -5.96046e-08
v 0.6 0.6 -5.96046e-08
v 0.6 0.8 -5.96046e-08
v 0.6 1.2 -5.96046e-08
v -0.4 0.5 -0.1
v -0.4 0.8 -0.1
v -0.4 1.2 -0.1
v 0.4 0.5 -0.1
v 0.4 0.8 -0.1
v 0.4 1.2 -0.1
v 0.3 2.2 -0.3
v 0.3 2.4 -0.3
v 0.3 2.5 -0.3
v 0.4 2.5 -0.3
v 0.4 2.6 -0.3
v 0.5 2.2 -0.3
v 0.5 2.4 -0.3
v 0.5 2.6 -0.3
v 0.7 2.4 -0.3
v 0.7 2.6 -0.3
v 0.8 2.4 -0.3
v 0.8 2.6 -0.3
v -0.6 1.2 -0.4
v -0.6 2.2 -0.4
v 0.6 1.2 -0.4
v 0.6 2.2 -0.4
v -0.3 0 0.4
v -0.0999999 0 0.4
v 0.1 0 0.4
v 0.3 0 0.4
v -0.3 0 -5.96046e-08
v -0.0999999 0 -5.96046e-08
v 0.1 0 -5.96046e-08
v 0.3 0 -5.96046e-08
v -0.4 0.5 0.3
v 0.4 0.5 0.3
v -0.3 0.5 0.2
v -0.0999999 0.5 0.2
v 0.1 0.5 0.2
v 0.3 0.5 0.2
v -0.3 0.5 -5.96046e-08
v -0.0999999 0.5 -5.96046e-08
v 0.1 0.5 -5.96046e-08
v 0.3 0.5 -5.96046e-08
v -0.4 0.5 -0.1
v 0.4 0.5 -0.1
v -0.6 0.6 0.2
v -0.4 0.6 0.2
v 0.4 0.6 0.2
v 0.6 0.6 0.2
v -0.6 0.6 -5.96046e-08
v -0.4 0.6 -5.96046e-08
v 0.4 0.6 -5.96046e-08
v 0.6 0.6 -5.96046e-08
v -0.6 1.2 0.6
v 0.6 1.2 0.6
v -0.4 1.2 0.3
v 0.4 1.2 0.3
v -0.6 1.2 0.2
v -0.4 1.2 0.2
v 0.4 1.2 0.2
v 0.6 1.2 0.2
v -0.6 1.2 -5.96046e-08
v -0.4 1.2 -5.96046e-08
v 0.4 1.2 -5.96046e-08
v 0.6 1.2 -5.96046e-08
v -0.4 1.2 -0.1
v 0.4 1.2 -0.1
v -0.6 1.2 -0.4
v 0.6 1.2 -0.4
v -0.0999999 1.7 0.7
v 0.1 1.7 0.7
v -0.0999999 1.7 0.6
v 0.1 1.7 0.6
v 0.5 2.4 -0.1
v 0.7 2.4 -0.1
v 0.8 2.4 -0.1
v 0.5 2.4 -0.3
v 0.7 2.4 -0.3
v 0.8 2.4 -0.3
v -0.3 0.2 0.4
v -0.0999999 0.2 0.4
v 0.1 0.2 0.4
v 0.3 0.2 0.4
v -0.3 0.2 0.2
v -0.0999999 0.2 0.2
v 0.1 0.2 0.2
v 0.3 0.2 0.2
v -0.0999999 1.8 0.7
v 0.1 1.8 0.7
v -0.0999999 1.8 0.6
v 0.1 1.8 0.6
v -0.5 2.1 0.5
v 0.5 2.1 0.5
v 0.3 2.1 -0.1
v 0.5 2.1 -0.1
v -0.5 2.1 -0.3
v 0.3 2.1 -0.3
v -0.6 2.2 0.6
v 0.6 2.2 0.6
v -0.5 2.2 0.5
v 0.5 2.2 0.5
v 0.5 2.2 -0.1
v -0.5 2.2 -0.3
v 0.3 2.2 -0.3
v 0.5 2.2 -0.3
v -0.6 2.2 -0.4
v 0.6 2.2 -0.4
v 0.3 2.5 -0.1
v 0.4 2.5 -0.1
v 0.3 2.5 -0.3
v 0.4 2.5 -0.3
v 0.4 2.6 -0.1
v 0.5 2.6 -0.1
v 0.7 2.6 -0.1
v 0.8 2.6 -0.1
v 0.4 2.6 -0.3
v 0.5 2.6 -0.3
v 0.7 2.6 -0.3
v 0.8 2.6 -0.3

# faces
f 3/3/1 2/3/1 1/3/1
f 4/3/1 2/3/1 3/3/1
f 6/6/1 4/6/1 3/6/1
f 7/6/1 4/6/1 6/6/1
f 9/3/1 7/3/1 6/3/1
f 9/3/1 8/3/1 7/3/1
f 9/3/1 6/3/1 5/3/1
f 10/3/1 8/3/1 9/3/1
f 13/7/1 12/7/1 11/7/1
f 14/7/1 12/7/1 13/7/1
f 15/7/1 13/7/1 11/7/1
f 16/7/1 13/7/1 15/7/1
f 17/7/1 12/7/1 14/7/1
f 18/7/1 12/7/1 17/7/1
f 19/6/1 16/6/1 15/6/1
f 20/6/1 16/6/1 19/6/1
f 21/6/1 18/6/1 17/6/1
f 22/6/1 18/6/1 21/6/1
f 25/8/1 24/8/1 23/8/1
f 26/8/1 24/8/1 25/8/1
f 27/8/1 24/8/1 26/8/1
f 28/8/1 24/8/1 27/8/1
f 29/4/1 28/4/1 27/4/1
f 30/4/1 28/4/1 29/4/1
f 31/7/1 30/7/1 29/7/1
f 32/7/1 30/7/1 31/7/1
f 35/5/1 34/5/1 33/5/1
f 36/5/1 34/5/1 35/5/1
f 39/8/1 38/8/1 37/8/1
f 40/8/1 38/8/1 39/8/1
f 41/8/1 38/8/1 40/8/1
f 42/8/1 38/8/1 41/8/1
f 43/4/1 42/4/1 41/4/1
f 44/4/1 42/4/1 43/4/1
f 45/7/1 44/7/1 43/7/1
f 46/7/1 44/7/1 45/7/1
f 49/3/1 48/3/1 47/3/1
f 50/3/1 48/3/1 49/3/1
f 51/1/1 50/1/1 49/1/1
f 52/1/1 50/1/1 51/1/1
f 53/3/1 52/3/1 51/3/1
f 54/3/1 52/3/1 53/3/1
f 57/3/1 56/3/1 55/3/1
f 58/3/1 56/3/1 57/3/1
f 61/3/1 60/3/1 59/3/1
f 62/3/1 60/3/1 61/3/1
f 63/3/2 64/3/2 65/3/2
f 65/3/2 64/3/2 66/3/2
f 67/8/2 68/8/2 69/8/2
f 69/8/2 68/8/2 70/8/2
f 70/8/2 68/8/2 71/8/2
f 71/8/2 68/8/2 72/8/2
f 71/4/2 72/4/2 73/4/2
f 73/4/2 72/4/2 74/4/2
f 73/7/2 74/7/2 75/7/2
f 75/7/2 74/7/2 76/7/2
f 77/5/2 78/5/2 79/5/2
f 79/5/2 78/5/2 80/5/2
f 81/8/2 82/8/2 83/8/2
f 83/8/2 82/8/2 84/8/2
f 84/8/2 82/8/2 85/8/2
f 85/8/2 82/8/2 86/8/2
f 85/4/2 86/4/2 87/4/2
f 87/4/2 86/4/2 88/4/2
f 87/7/2 88/7/2 89/7/2
f 89/7/2 88/7/2 90/7/2
f 91/7/2 92/7/2 93/7/2
f 93/7/2 92/7/2 94/7/2
f 91/7/2 93/7/2 95/7/2
f 95/7/2 93/7/2 96/7/2
f 94/7/2 92/7/2 97/7/2
f 97/7/2 92/7/2 98/7/2
f 95/6/2 96/6/2 99/6/2
f 99/6/2 96/6/2 100/6/2
f 97/6/2 98/6/2 101/6/2
f 101/6/2 98/6/2 102/6/2
f 103/1/2 104/1/2 105/1/2
f 105/1/2 104/1/2 106/1/2
f 107/3/2 108/3/2 109/3/2
f 109/3/2 108/3/2 110/3/2
f 109/6/2 110/6/2 112/6/2
f 112/6/2 110/6/2 113/6/2
f 112/3/2 113/3/2 115/3/2
f 113/3/2 114/3/2 115/3/2
f 111/3/2 112/3/2 115/3/2
f 115/3/2 114/3/2 116/3/2
f 117/3/2 118/3/2 119/3/2
f 119/3/2 118/3/2 120/3/2
f 123/5/3 122/5/3 121/5/3
f 124/5/3 122/5/3 123/5/3
f 127/3/3 126/3/3 125/3/3
f 128/3/3 126/3/3 127/3/3
f 129/3/3 126/3/3 128/3/3
f 130/3/3 127/3/3 125/3/3
f 131/5/3 128/5/3 127/5/3
f 131/3/3 127/3/3 130/3/3
f 132/3/3 126/3/3 129/3/3
f 133/3/3 126/3/3 132/3/3
f 134/3/3 132/3/3 129/3/3
f 134/4/3 133/4/3 132/4/3
f 135/4/3 133/4/3 134/4/3
f 136/3/3 134/3/3 129/3/3
f 136/2/3 135/2/3 134/2/3
f 137/4/3 133/4/3 135/4/3
f 137/2/3 135/2/3 136/2/3
f 138/5/3 128/5/3 131/5/3
f 138/5/3 131/5/3 130/5/3
f 139/2/3 129/2/3 128/2/3
f 139/5/3 128/5/3 138/5/3
f 140/3/3 136/3/3 129/3/3
f 141/4/3 137/4/3 136/4/3
f 141/3/3 136/3/3 140/3/3
f 142/4/3 133/4/3 137/4/3
f 142/4/3 137/4/3 141/4/3
f 142/3/3 126/3/3 133/3/3
f 143/3/3 130/3/3 125/3/3
f 143/5/3 138/5/3 130/5/3
f 144/2/3 139/2/3 138/2/3
f 144/5/3 138/5/3 143/5/3
f 145/3/3 140/3/3 129/3/3
f 146/3/3 142/3/3 141/3/3
f 147/3/3 126/3/3 142/3/3
f 147/3/3 142/3/3 146/3/3
f 148/3/3 143/3/3 125/3/3
f 148/2/3 144/2/3 143/2/3
f 149/3/3 146/3/3 145/3/3
f 149/2/3 144/2/3 148/2/3
f 149/3/3 145/3/3 129/3/3
f 149/2/3 129/2/3 139/2/3
f 149/2/3 139/2/3 144/2/3
f 150/4/3 147/4/3 146/4/3
f 150/3/3 146/3/3 149/3/3
f 151/4/3 147/4/3 150/4/3
f 152/3/3 149/3/3 148/3/3
f 152/3/3 150/3/3 149/3/3
f 152/2/3 151/2/3 150/2/3
f 153/4/3 147/4/3 151/4/3
f 153/2/3 151/2/3 152/2/3
f 154/3/3 152/3/3 148/3/3
f 154/4/3 153/4/3 152/4/3
f 155/4/3 147/4/3 153/4/3
f 155/4/3 153/4/3 154/4/3
f 155/3/3 126/3/3 147/3/3
f 156/3/3 148/3/3 125/3/3
f 156/3/3 154/3/3 148/3/3
f 156/3/3 155/3/3 154/3/3
f 157/3/3 126/3/3 155/3/3
f 157/3/3 155/3/3 156/3/3
f 160/8/3 159/8/3 158/8/3
f 161/8/3 159/8/3 160/8/3
f 164/8/3 163/8/3 162/8/3
f 165/8/3 163/8/3 164/8/3
f 169/7/3 167/7/3 166/7/3
f 170/6/3 168/6/3 167/6/3
f 170/7/3 167/7/3 169/7/3
f 171/6/3 168/6/3 170/6/3
f 175/3/3 173/3/3 172/3/3
f 176/6/3 174/6/3 173/6/3
f 176/3/3 173/3/3 175/3/3
f 177/6/3 174/6/3 176/6/3
f 182/8/3 179/8/3 178/8/3
f 183/4/3 180/4/3 179/4/3
f 183/8/3 179/8/3 182/8/3
f 184/7/3 181/7/3 180/7/3
f 184/4/3 180/4/3 183/4/3
f 185/7/3 181/7/3 184/7/3
f 190/8/3 187/8/3 186/8/3
f 191/4/3 188/4/3 187/4/3
f 191/8/3 187/8/3 190/8/3
f 192/7/3 189/7/3 188/7/3
f 192/4/3 188/4/3 191/4/3
f 193/7/3 189/7/3 192/7/3
f 197/3/3 195/3/3 194/3/3
f 198/6/3 196/6/3 195/6/3
f 198/3/3 195/3/3 197/3/3
f 199/6/3 196/6/3 198/6/3
f 204/3/3 203/3/3 202/3/3
f 206/3/3 201/3/3 200/3/3
f 207/1/3 202/1/3 201/1/3
f 207/3/3 201/3/3 206/3/3
f 208/3/3 205/3/3 204/3/3
f 208/1/3 202/1/3 207/1/3
f 208/3/3 204/3/3 202/3/3
f 209/3/3 205/3/3 208/3/3
f 210/1/3 209/1/3 208/1/3
f 211/1/3 209/1/3 210/1/3
f 212/3/3 211/3/3 210/3/3
f 213/3/3 211/3/3 212/3/3
f 216/3/3 215/3/3 214/3/3
f 217/3/3 215/3/3 216/3/3
f 218/3/4 219/3/4 220/3/4
f 220/3/4 219/3/4 221/3/4
f 222/3/4 223/3/4 225/3/4
f 223/6/4 224/6/4 226/6/4
f 225/3/4 223/3/4 226/3/4
f 226/6/4 224/6/4 227/6/4
f 228/8/4 229/8/4 232/8/4
f 229/4/4 230/4/4 233/4/4
f 232/8/4 229/8/4 233/8/4
f 230/7/4 231/7/4 234/7/4
f 233/4/4 230/4/4 234/4/4
f 234/7/4 231/7/4 235/7/4
f 236/8/4 237/8/4 240/8/4
f 237/4/4 238/4/4 241/4/4
f 240/8/4 237/8/4 241/8/4
f 238/7/4 239/7/4 242/7/4
f 241/4/4 238/4/4 242/4/4
f 242/7/4 239/7/4 243/7/4
f 244/3/4 245/3/4 247/3/4
f 245/6/4 246/6/4 248/6/4
f 247/3/4 245/3/4 248/3/4
f 248/6/4 246/6/4 249/6/4
f 250/7/4 251/7/4 253/7/4
f 251/6/4 252/6/4 254/6/4
f 253/7/4 251/7/4 254/7/4
f 254/6/4 252/6/4 255/6/4
f 257/3/4 258/3/4 259/3/4
f 256/1/4 257/1/4 261/1/4
f 259/3/4 260/3/4 262/3/4
f 261/1/4 257/1/4 262/1/4
f 257/3/4 259/3/4 262/3/4
f 262/3/4 260/3/4 263/3/4
f 262/1/4 263/1/4 264/1/4
f 264/1/4 263/1/4 265/1/4
f 264/3/4 265/3/4 266/3/4
f 266/3/4 265/3/4 267/3/4
f 268/3/4 269/3/4 270/3/4
f 270/3/4 269/3/4 271/3/4
f 276/8/5 273/8/5 272/8/5
f 277/8/5 273/8/5 276/8/5
f 278/8/5 275/8/5 274/8/5
f 279/8/5 275/8/5 278/8/5
f 282/7/5 281/7/5 280/7/5
f 283/7/5 281/7/5 282/7/5
f 284/7/5 281/7/5 283/7/5
f 285/7/5 281/7/5 284/7/5
f 286/7/5 282/7/5 280/7/5
f 287/7/5 284/7/5 283/7/5
f 288/7/5 284/7/5 287/7/5
f 289/7/5 281/7/5 285/7/5
f 290/7/5 288/7/5 287/7/5
f 290/7/5 289/7/5 288/7/5
f 290/7/5 286/7/5 280/7/5
f 290/7/5 287/7/5 286/7/5
f 291/7/5 281/7/5 289/7/5
f 291/7/5 289/7/5 290/7/5
f 296/3/5 293/3/5 292/3/5
f 297/3/5 293/3/5 296/3/5
f 298/3/5 295/3/5 294/3/5
f 299/3/5 295/3/5 298/3/5
f 302/3/5 301/3/5 300/3/5
f 303/3/5 301/3/5 302/3/5
f 304/3/5 302/3/5 300/3/5
f 305/3/5 302/3/5 304/3/5
f 306/3/5 301/3/5 303/3/5
f 307/3/5 301/3/5 306/3/5
f 312/3/5 309/3/5 308/3/5
f 313/3/5 311/3/5 310/3/5
f 314/3/5 312/3/5 308/3/5
f 314/3/5 313/3/5 312/3/5
f 315/3/5 311/3/5 313/3/5
f 315/3/5 313/3/5 314/3/5
f 318/5/5 317/5/5 316/5/5
f 319/5/5 317/5/5 318/5/5
f 323/1/5 321/1/5 320/1/5
f 324/3/5 322/3/5 321/3/5
f 324/1/5 321/1/5 323/1/5
f 325/3/5 322/3/5 324/3/5
f 326/8/6 327/8/6 330/8/6
f 330/8/6 327/8/6 331/8/6
f 328/8/6 329/8/6 332/8/6
f 332/8/6 329/8/6 333/8/6
f 334/5/6 335/5/6 336/5/6
f 336/5/6 335/5/6 337/5/6
f 338/3/6 339/3/6 340/3/6
f 340/3/6 339/3/6 341/3/6
f 338/3/6 340/3/6 342/3/6
f 342/3/6 340/3/6 343/3/6
f 344/3/6 345/3/6 346/3/6
f 346/3/6 345/3/6 347/3/6
f 347/3/6 345/3/6 348/3/6
f 344/3/6 346/3/6 349/3/6
f 348/3/6 345/3/6 351/3/6
f 349/3/6 350/3/6 352/3/6
f 350/3/6 351/3/6 352/3/6
f 344/3/6 349/3/6 352/3/6
f 351/3/6 345/3/6 353/3/6
f 352/3/6 351/3/6 353/3/6
f 354/3/6 355/3/6 356/3/6
f 356/3/6 355/3/6 357/3/6
f 358/3/6 359/3/6 362/3/6
f 359/1/6 360/1/6 363/1/6
f 362/3/6 359/3/6 363/3/6
f 360/3/6 361/3/6 364/3/6
f 363/1/6 360/1/6 364/1/6
f 364/3/6 361/3/6 365/3/6
